<?xml version="1.0" encoding="UTF-8" standalone="no"?>
<!DOCTYPE svg PUBLIC "-//W3C//DTD SVG 1.1//EN"
 "http://www.w3.org/Graphics/SVG/1.1/DTD/svg11.dtd">
<!-- Generated by graphviz version 13.1.0 (20250701.0955)
 -->
<!-- Pages: 1 -->
<svg width="629pt" height="519pt"
 viewBox="0.00 0.00 629.00 519.00" xmlns="http://www.w3.org/2000/svg" xmlns:xlink="http://www.w3.org/1999/xlink">
<g id="graph0" class="graph" transform="scale(1 1) rotate(0) translate(4 514.8)">
<!-- 019b2816&#45;7c3a&#45;7048&#45;8f0f&#45;21c3c6ef817d -->
<g id="019b2816&#45;7c3a&#45;7048&#45;8f0f&#45;21c3c6ef817d" class="node">
<title>019b2816&#45;7c3a&#45;7048&#45;8f0f&#45;21c3c6ef817d</title>
<polygon fill="#a6f2f2" stroke="none" points="268.85,-482.4 268.85,-506.8 470.82,-506.8 470.82,-482.4 268.85,-482.4"/>
<polygon fill="none" stroke="black" points="268.85,-482.4 268.85,-506.8 470.82,-506.8 470.82,-482.4 268.85,-482.4"/>
<text xml:space="preserve" text-anchor="start" x="306.5" y="-492" font-family="sans-serif" font-weight="bold" font-size="12.00">       permissions    </text>
<polygon fill="none" stroke="black" points="268.85,-458 268.85,-482.4 336.84,-482.4 336.84,-458 268.85,-458"/>
<text xml:space="preserve" text-anchor="start" x="273.85" y="-466.6" font-family="sans-serif" font-size="12.00">level    </text>
<polygon fill="none" stroke="black" points="336.84,-458 336.84,-482.4 470.82,-482.4 470.82,-458 336.84,-458"/>
<text xml:space="preserve" text-anchor="start" x="341.84" y="-466.6" font-family="sans-serif" font-size="12.00">permission_level       </text>
<polygon fill="none" stroke="black" points="268.85,-433.6 268.85,-458 336.84,-458 336.84,-433.6 268.85,-433.6"/>
<text xml:space="preserve" text-anchor="start" x="273.85" y="-442.2" font-family="sans-serif" font-size="12.00">object    </text>
<polygon fill="none" stroke="black" points="336.84,-433.6 336.84,-458 470.82,-458 470.82,-433.6 336.84,-433.6"/>
<text xml:space="preserve" text-anchor="start" x="341.84" y="-442.2" font-family="sans-serif" font-size="12.00">→ refs    </text>
<polygon fill="none" stroke="black" points="268.85,-409.2 268.85,-433.6 336.84,-433.6 336.84,-409.2 268.85,-409.2"/>
<text xml:space="preserve" text-anchor="start" x="273.85" y="-417.8" font-family="sans-serif" font-size="12.00">subject    </text>
<polygon fill="none" stroke="black" points="336.84,-409.2 336.84,-433.6 470.82,-433.6 470.82,-409.2 336.84,-409.2"/>
<text xml:space="preserve" text-anchor="start" x="341.84" y="-417.8" font-family="sans-serif" font-size="12.00">→ users    </text>
</g>
<!-- 019b281f&#45;bedf&#45;74d3&#45;b933&#45;15d4af5fa061 -->
<g id="019b281f&#45;bedf&#45;74d3&#45;b933&#45;15d4af5fa061" class="node">
<title>019b281f&#45;bedf&#45;74d3&#45;b933&#45;15d4af5fa061</title>
<polygon fill="#a6f2f2" stroke="none" points="28.65,-316.4 28.65,-340.8 247.02,-340.8 247.02,-316.4 28.65,-316.4"/>
<polygon fill="none" stroke="black" points="28.65,-316.4 28.65,-340.8 247.02,-340.8 247.02,-316.4 28.65,-316.4"/>
<text xml:space="preserve" text-anchor="start" x="110.18" y="-326" font-family="sans-serif" font-weight="bold" font-size="12.00">    refs  </text>
<polygon fill="none" stroke="black" points="28.65,-292 28.65,-316.4 117.96,-316.4 117.96,-292 28.65,-292"/>
<text xml:space="preserve" text-anchor="start" x="33.65" y="-300.6" font-family="sans-serif" font-size="12.00">id  </text>
<polygon fill="none" stroke="black" points="117.96,-292 117.96,-316.4 247.02,-316.4 247.02,-292 117.96,-292"/>
<text xml:space="preserve" text-anchor="start" x="122.96" y="-300.6" font-family="sans-serif" font-size="12.00">uuid   </text>
<polygon fill="none" stroke="black" points="28.65,-267.6 28.65,-292 117.96,-292 117.96,-267.6 28.65,-267.6"/>
<text xml:space="preserve" text-anchor="start" x="33.65" y="-276.2" font-family="sans-serif" font-size="12.00">created    </text>
<polygon fill="none" stroke="black" points="117.96,-267.6 117.96,-292 247.02,-292 247.02,-267.6 117.96,-267.6"/>
<text xml:space="preserve" text-anchor="start" x="122.96" y="-276.2" font-family="sans-serif" font-size="12.00">timestamp     </text>
<polygon fill="none" stroke="black" points="28.65,-243.2 28.65,-267.6 117.96,-267.6 117.96,-243.2 28.65,-243.2"/>
<text xml:space="preserve" text-anchor="start" x="33.65" y="-251.8" font-family="sans-serif" font-size="12.00">deleted_at     </text>
<polygon fill="none" stroke="black" points="117.96,-243.2 117.96,-267.6 247.02,-267.6 247.02,-243.2 117.96,-243.2"/>
<text xml:space="preserve" text-anchor="start" x="122.96" y="-251.8" font-family="sans-serif" font-size="12.00">timestamp | null       </text>
<polygon fill="none" stroke="black" points="28.65,-218.8 28.65,-243.2 117.96,-243.2 117.96,-218.8 28.65,-218.8"/>
<text xml:space="preserve" text-anchor="start" x="33.65" y="-227.4" font-family="sans-serif" font-size="12.00">head   </text>
<polygon fill="none" stroke="black" points="117.96,-218.8 117.96,-243.2 247.02,-243.2 247.02,-218.8 117.96,-218.8"/>
<text xml:space="preserve" text-anchor="start" x="122.96" y="-227.4" font-family="sans-serif" font-size="12.00">→ snapshots      </text>
</g>
<!-- 019b2816&#45;7c3a&#45;7048&#45;8f0f&#45;21c3c6ef817d&#45;&gt;019b281f&#45;bedf&#45;74d3&#45;b933&#45;15d4af5fa061 -->
<g id="019b2827&#45;5513&#45;75af&#45;bab5&#45;b0f0c5cb8a4b" class="edge">
<title>019b2816&#45;7c3a&#45;7048&#45;8f0f&#45;21c3c6ef817d:w&#45;&gt;019b281f&#45;bedf&#45;74d3&#45;b933&#45;15d4af5fa061</title>
<path fill="none" stroke="#666666" d="M257.68,-445.13C209.61,-438.77 177.8,-388.03 159.11,-344.59"/>
<polygon fill="#666666" stroke="#666666" points="257.53,-445.12 267.22,-450.27 262.86,-445.47 267.18,-445.76 267.18,-445.76 267.18,-445.76 262.86,-445.47 267.81,-441.29 257.53,-445.12"/>
</g>
<!-- 019b2829&#45;bef7&#45;7017&#45;83c3&#45;19f7ea771f00 -->
<g id="019b2829&#45;bef7&#45;7017&#45;83c3&#45;19f7ea771f00" class="node">
<title>019b2829&#45;bef7&#45;7017&#45;83c3&#45;19f7ea771f00</title>
<polygon fill="#a6f2f2" stroke="none" points="280.98,-340.8 280.98,-365.2 522.69,-365.2 522.69,-340.8 280.98,-340.8"/>
<polygon fill="none" stroke="black" points="280.98,-340.8 280.98,-365.2 522.69,-365.2 522.69,-340.8 280.98,-340.8"/>
<text xml:space="preserve" text-anchor="start" x="370.5" y="-350.4" font-family="sans-serif" font-weight="bold" font-size="12.00">    users  </text>
<polygon fill="none" stroke="black" points="280.98,-316.4 280.98,-340.8 393.63,-340.8 393.63,-316.4 280.98,-316.4"/>
<text xml:space="preserve" text-anchor="start" x="285.98" y="-325" font-family="sans-serif" font-size="12.00">id  </text>
<polygon fill="none" stroke="black" points="393.63,-316.4 393.63,-340.8 522.69,-340.8 522.69,-316.4 393.63,-316.4"/>
<text xml:space="preserve" text-anchor="start" x="398.63" y="-325" font-family="sans-serif" font-size="12.00">uuid   </text>
<polygon fill="none" stroke="black" points="280.98,-292 280.98,-316.4 393.63,-316.4 393.63,-292 280.98,-292"/>
<text xml:space="preserve" text-anchor="start" x="285.98" y="-300.6" font-family="sans-serif" font-size="12.00">created    </text>
<polygon fill="none" stroke="black" points="393.63,-292 393.63,-316.4 522.69,-316.4 522.69,-292 393.63,-292"/>
<text xml:space="preserve" text-anchor="start" x="398.63" y="-300.6" font-family="sans-serif" font-size="12.00">timestamp     </text>
<polygon fill="none" stroke="black" points="280.98,-267.6 280.98,-292 393.63,-292 393.63,-267.6 280.98,-267.6"/>
<text xml:space="preserve" text-anchor="start" x="285.98" y="-276.2" font-family="sans-serif" font-size="12.00">signed_in     </text>
<polygon fill="none" stroke="black" points="393.63,-267.6 393.63,-292 522.69,-292 522.69,-267.6 393.63,-267.6"/>
<text xml:space="preserve" text-anchor="start" x="398.63" y="-276.2" font-family="sans-serif" font-size="12.00">timestamp | null       </text>
<polygon fill="none" stroke="black" points="280.98,-243.2 280.98,-267.6 393.63,-267.6 393.63,-243.2 280.98,-243.2"/>
<text xml:space="preserve" text-anchor="start" x="285.98" y="-251.8" font-family="sans-serif" font-size="12.00">username     </text>
<polygon fill="none" stroke="black" points="393.63,-243.2 393.63,-267.6 522.69,-267.6 522.69,-243.2 393.63,-243.2"/>
<text xml:space="preserve" text-anchor="start" x="398.63" y="-251.8" font-family="sans-serif" font-size="12.00">text | null      </text>
<polygon fill="none" stroke="black" points="280.98,-218.8 280.98,-243.2 393.63,-243.2 393.63,-218.8 280.98,-218.8"/>
<text xml:space="preserve" text-anchor="start" x="285.98" y="-227.4" font-family="sans-serif" font-size="12.00">display_name      </text>
<polygon fill="none" stroke="black" points="393.63,-218.8 393.63,-243.2 522.69,-243.2 522.69,-218.8 393.63,-218.8"/>
<text xml:space="preserve" text-anchor="start" x="398.63" y="-227.4" font-family="sans-serif" font-size="12.00">text | null      </text>
<polygon fill="none" stroke="black" points="280.98,-194.4 280.98,-218.8 393.63,-218.8 393.63,-194.4 280.98,-194.4"/>
<text xml:space="preserve" text-anchor="start" x="285.98" y="-203" font-family="sans-serif" font-size="12.00">state_doc_id      </text>
<polygon fill="none" stroke="black" points="393.63,-194.4 393.63,-218.8 522.69,-218.8 522.69,-194.4 393.63,-194.4"/>
<text xml:space="preserve" text-anchor="start" x="398.63" y="-203" font-family="sans-serif" font-size="12.00">text | null      </text>
</g>
<!-- 019b2816&#45;7c3a&#45;7048&#45;8f0f&#45;21c3c6ef817d&#45;&gt;019b2829&#45;bef7&#45;7017&#45;83c3&#45;19f7ea771f00 -->
<g id="019b2829&#45;f6f8&#45;7204&#45;9585&#45;7dd15dc1315e" class="edge">
<title>019b2816&#45;7c3a&#45;7048&#45;8f0f&#45;21c3c6ef817d:w&#45;&gt;019b2829&#45;bef7&#45;7017&#45;83c3&#45;19f7ea771f00</title>
<path fill="none" stroke="#666666" d="M257.67,-420.5C236.11,-415.89 252.56,-394.09 280.93,-369.05"/>
<polygon fill="#666666" stroke="#666666" points="257.55,-420.49 267.12,-425.85 262.87,-420.96 267.18,-421.34 267.18,-421.34 267.18,-421.34 262.87,-420.96 267.91,-416.89 257.55,-420.49"/>
</g>
<!-- 019b282d&#45;ec81&#45;718f&#45;af71&#45;5e3d0f841924 -->
<g id="019b282d&#45;ec81&#45;718f&#45;af71&#45;5e3d0f841924" class="node">
<title>019b282d&#45;ec81&#45;718f&#45;af71&#45;5e3d0f841924</title>
<polygon fill="#a6f2f2" stroke="none" points="33.51,-126 33.51,-150.4 230.16,-150.4 230.16,-126 33.51,-126"/>
<polygon fill="none" stroke="black" points="33.51,-126 33.51,-150.4 230.16,-150.4 230.16,-126 33.51,-126"/>
<text xml:space="preserve" text-anchor="start" x="79.82" y="-135.6" font-family="sans-serif" font-weight="bold" font-size="12.00">      snapshots   </text>
<polygon fill="none" stroke="black" points="33.51,-101.6 33.51,-126 140.16,-126 140.16,-101.6 33.51,-101.6"/>
<text xml:space="preserve" text-anchor="start" x="38.51" y="-110.2" font-family="sans-serif" font-size="12.00">id  </text>
<polygon fill="none" stroke="black" points="140.16,-101.6 140.16,-126 230.16,-126 230.16,-101.6 140.16,-101.6"/>
<text xml:space="preserve" text-anchor="start" x="145.16" y="-110.2" font-family="sans-serif" font-size="12.00">int   </text>
<polygon fill="none" stroke="black" points="33.51,-77.2 33.51,-101.6 140.16,-101.6 140.16,-77.2 33.51,-77.2"/>
<text xml:space="preserve" text-anchor="start" x="38.51" y="-85.8" font-family="sans-serif" font-size="12.00">content    </text>
<polygon fill="none" stroke="black" points="140.16,-77.2 140.16,-101.6 230.16,-101.6 230.16,-77.2 140.16,-77.2"/>
<text xml:space="preserve" text-anchor="start" x="145.16" y="-85.8" font-family="sans-serif" font-size="12.00">jsonb    </text>
<polygon fill="none" stroke="black" points="33.51,-52.8 33.51,-77.2 140.16,-77.2 140.16,-52.8 33.51,-52.8"/>
<text xml:space="preserve" text-anchor="start" x="38.51" y="-61.4" font-family="sans-serif" font-size="12.00">last_updated      </text>
<polygon fill="none" stroke="black" points="140.16,-52.8 140.16,-77.2 230.16,-77.2 230.16,-52.8 140.16,-52.8"/>
<text xml:space="preserve" text-anchor="start" x="145.16" y="-61.4" font-family="sans-serif" font-size="12.00">timestamp     </text>
<polygon fill="none" stroke="black" points="33.51,-28.4 33.51,-52.8 140.16,-52.8 140.16,-28.4 33.51,-28.4"/>
<text xml:space="preserve" text-anchor="start" x="38.51" y="-37" font-family="sans-serif" font-size="12.00">doc_id    </text>
<polygon fill="none" stroke="black" points="140.16,-28.4 140.16,-52.8 230.16,-52.8 230.16,-28.4 140.16,-28.4"/>
<text xml:space="preserve" text-anchor="start" x="145.16" y="-37" font-family="sans-serif" font-size="12.00">text   </text>
<polygon fill="none" stroke="black" points="33.51,-4 33.51,-28.4 140.16,-28.4 140.16,-4 33.51,-4"/>
<text xml:space="preserve" text-anchor="start" x="38.51" y="-12.6" font-family="sans-serif" font-size="12.00">for_ref    </text>
<polygon fill="none" stroke="black" points="140.16,-4 140.16,-28.4 230.16,-28.4 230.16,-4 140.16,-4"/>
<text xml:space="preserve" text-anchor="start" x="145.16" y="-12.6" font-family="sans-serif" font-size="12.00">→ refs    </text>
</g>
<!-- 019b281f&#45;bedf&#45;74d3&#45;b933&#45;15d4af5fa061&#45;&gt;019b282d&#45;ec81&#45;718f&#45;af71&#45;5e3d0f841924 -->
<g id="019b282e&#45;08f9&#45;755b&#45;b96a&#45;0d159a1d9ed1" class="edge">
<title>019b281f&#45;bedf&#45;74d3&#45;b933&#45;15d4af5fa061:w&#45;&gt;019b282d&#45;ec81&#45;718f&#45;af71&#45;5e3d0f841924</title>
<path fill="none" stroke="#666666" d="M17.45,-229.93C-8.35,-223.48 16.37,-188.76 49.35,-154.15"/>
<polygon fill="#666666" stroke="#666666" points="17.37,-229.93 26.85,-235.44 22.68,-230.48 26.98,-230.93 26.98,-230.93 26.98,-230.93 22.68,-230.48 27.78,-226.49 17.37,-229.93"/>
</g>
<!-- 019b282d&#45;ec81&#45;718f&#45;af71&#45;5e3d0f841924&#45;&gt;019b281f&#45;bedf&#45;74d3&#45;b933&#45;15d4af5fa061 -->
<g id="019b2839&#45;41f4&#45;712c&#45;a78c&#45;0ec6372a503f" class="edge">
<title>019b282d&#45;ec81&#45;718f&#45;af71&#45;5e3d0f841924:w&#45;&gt;019b281f&#45;bedf&#45;74d3&#45;b933&#45;15d4af5fa061</title>
<path fill="none" stroke="#666666" d="M22.17,-17.12C-23.84,-26.18 13.63,-100.36 33.51,-154.4 41.54,-176.22 55.23,-196.9 70.1,-214.9"/>
<polygon fill="#666666" stroke="#666666" points="22.22,-17.11 32.58,-20.71 27.53,-16.64 31.85,-16.26 31.85,-16.26 31.85,-16.26 27.53,-16.64 31.78,-11.75 22.22,-17.11"/>
</g>
<!-- 019b283f&#45;3445&#45;72bf&#45;8102&#45;98cb3c2617e8 -->
<g id="019b283f&#45;3445&#45;72bf&#45;8102&#45;98cb3c2617e8" class="node">
<title>019b283f&#45;3445&#45;72bf&#45;8102&#45;98cb3c2617e8</title>
<polygon fill="#a6f2f2" stroke="none" points="504.85,-470.2 504.85,-494.6 612.82,-494.6 612.82,-470.2 504.85,-470.2"/>
<polygon fill="none" stroke="black" points="504.85,-470.2 504.85,-494.6 612.82,-494.6 612.82,-470.2 504.85,-470.2"/>
<text xml:space="preserve" text-anchor="start" x="516.18" y="-479.8" font-family="sans-serif" font-weight="bold" font-size="12.00">     storage   </text>
<polygon fill="none" stroke="black" points="504.85,-445.8 504.85,-470.2 552.83,-470.2 552.83,-445.8 504.85,-445.8"/>
<text xml:space="preserve" text-anchor="start" x="509.85" y="-454.4" font-family="sans-serif" font-size="12.00">key   </text>
<polygon fill="none" stroke="black" points="552.83,-445.8 552.83,-470.2 612.82,-470.2 612.82,-445.8 552.83,-445.8"/>
<text xml:space="preserve" text-anchor="start" x="557.83" y="-454.4" font-family="sans-serif" font-size="12.00">text[]    </text>
<polygon fill="none" stroke="black" points="504.85,-421.4 504.85,-445.8 552.83,-445.8 552.83,-421.4 504.85,-421.4"/>
<text xml:space="preserve" text-anchor="start" x="509.85" y="-430" font-family="sans-serif" font-size="12.00">data   </text>
<polygon fill="none" stroke="black" points="552.83,-421.4 552.83,-445.8 612.82,-445.8 612.82,-421.4 552.83,-421.4"/>
<text xml:space="preserve" text-anchor="start" x="557.83" y="-430" font-family="sans-serif" font-size="12.00">bytea    </text>
</g>
</g>
</svg>
