<?xml version="1.0" encoding="UTF-8" standalone="no"?>
<!DOCTYPE svg PUBLIC "-//W3C//DTD SVG 1.1//EN"
 "http://www.w3.org/Graphics/SVG/1.1/DTD/svg11.dtd">
<!-- Generated by graphviz version 13.1.0 (20250701.0955)
 -->
<!-- Pages: 1 -->
<svg width="601pt" height="446pt"
 viewBox="0.00 0.00 601.00 446.00" xmlns="http://www.w3.org/2000/svg" xmlns:xlink="http://www.w3.org/1999/xlink">
<g id="graph0" class="graph" transform="scale(1 1) rotate(0) translate(4 441.6)">
<!-- 019b2816&#45;7c3a&#45;7048&#45;8f0f&#45;21c3c6ef817d -->
<g id="019b2816&#45;7c3a&#45;7048&#45;8f0f&#45;21c3c6ef817d" class="node">
<title>019b2816&#45;7c3a&#45;7048&#45;8f0f&#45;21c3c6ef817d</title>
<polygon fill="#a6f2f2" stroke="none" points="240.55,-409.2 240.55,-433.6 442.52,-433.6 442.52,-409.2 240.55,-409.2"/>
<polygon fill="none" stroke="black" points="240.55,-409.2 240.55,-433.6 442.52,-433.6 442.52,-409.2 240.55,-409.2"/>
<text xml:space="preserve" text-anchor="start" x="278.2" y="-418.8" font-family="sans-serif" font-weight="bold" font-size="12.00">       permissions    </text>
<polygon fill="none" stroke="black" points="240.55,-384.8 240.55,-409.2 308.54,-409.2 308.54,-384.8 240.55,-384.8"/>
<text xml:space="preserve" text-anchor="start" x="245.55" y="-393.4" font-family="sans-serif" font-size="12.00">level    </text>
<polygon fill="none" stroke="black" points="308.54,-384.8 308.54,-409.2 442.52,-409.2 442.52,-384.8 308.54,-384.8"/>
<text xml:space="preserve" text-anchor="start" x="313.54" y="-393.4" font-family="sans-serif" font-size="12.00">permission_level       </text>
<polygon fill="none" stroke="black" points="240.55,-360.4 240.55,-384.8 308.54,-384.8 308.54,-360.4 240.55,-360.4"/>
<text xml:space="preserve" text-anchor="start" x="245.55" y="-369" font-family="sans-serif" font-size="12.00">object    </text>
<polygon fill="none" stroke="black" points="308.54,-360.4 308.54,-384.8 442.52,-384.8 442.52,-360.4 308.54,-360.4"/>
<text xml:space="preserve" text-anchor="start" x="313.54" y="-369" font-family="sans-serif" font-size="12.00">→ refs    </text>
<polygon fill="none" stroke="black" points="240.55,-336 240.55,-360.4 308.54,-360.4 308.54,-336 240.55,-336"/>
<text xml:space="preserve" text-anchor="start" x="245.55" y="-344.6" font-family="sans-serif" font-size="12.00">subject    </text>
<polygon fill="none" stroke="black" points="308.54,-336 308.54,-360.4 442.52,-360.4 442.52,-336 308.54,-336"/>
<text xml:space="preserve" text-anchor="start" x="313.54" y="-344.6" font-family="sans-serif" font-size="12.00">→ users    </text>
</g>
<!-- 019b281f&#45;bedf&#45;74d3&#45;b933&#45;15d4af5fa061 -->
<g id="019b281f&#45;bedf&#45;74d3&#45;b933&#45;15d4af5fa061" class="node">
<title>019b281f&#45;bedf&#45;74d3&#45;b933&#45;15d4af5fa061</title>
<polygon fill="#a6f2f2" stroke="none" points="28.55,-255.4 28.55,-279.8 222.53,-279.8 222.53,-255.4 28.55,-255.4"/>
<polygon fill="none" stroke="black" points="28.55,-255.4 28.55,-279.8 222.53,-279.8 222.53,-255.4 28.55,-255.4"/>
<text xml:space="preserve" text-anchor="start" x="97.88" y="-265" font-family="sans-serif" font-weight="bold" font-size="12.00">    refs  </text>
<polygon fill="none" stroke="black" points="28.55,-231 28.55,-255.4 117.86,-255.4 117.86,-231 28.55,-231"/>
<text xml:space="preserve" text-anchor="start" x="33.55" y="-239.6" font-family="sans-serif" font-size="12.00">created    </text>
<polygon fill="none" stroke="black" points="117.86,-231 117.86,-255.4 222.53,-255.4 222.53,-231 117.86,-231"/>
<text xml:space="preserve" text-anchor="start" x="122.86" y="-239.6" font-family="sans-serif" font-size="12.00">timestamp     </text>
<polygon fill="none" stroke="black" points="28.55,-206.6 28.55,-231 117.86,-231 117.86,-206.6 28.55,-206.6"/>
<text xml:space="preserve" text-anchor="start" x="33.55" y="-215.2" font-family="sans-serif" font-size="12.00">deleted_at     </text>
<polygon fill="none" stroke="black" points="117.86,-206.6 117.86,-231 222.53,-231 222.53,-206.6 117.86,-206.6"/>
<text xml:space="preserve" text-anchor="start" x="122.86" y="-215.2" font-family="sans-serif" font-size="12.00">timestamp     </text>
<polygon fill="none" stroke="black" points="28.55,-182.2 28.55,-206.6 117.86,-206.6 117.86,-182.2 28.55,-182.2"/>
<text xml:space="preserve" text-anchor="start" x="33.55" y="-190.8" font-family="sans-serif" font-size="12.00">head   </text>
<polygon fill="none" stroke="black" points="117.86,-182.2 117.86,-206.6 222.53,-206.6 222.53,-182.2 117.86,-182.2"/>
<text xml:space="preserve" text-anchor="start" x="122.86" y="-190.8" font-family="sans-serif" font-size="12.00">→ snapshots      </text>
</g>
<!-- 019b2816&#45;7c3a&#45;7048&#45;8f0f&#45;21c3c6ef817d&#45;&gt;019b281f&#45;bedf&#45;74d3&#45;b933&#45;15d4af5fa061 -->
<g id="019b2827&#45;5513&#45;75af&#45;bab5&#45;b0f0c5cb8a4b" class="edge">
<title>019b2816&#45;7c3a&#45;7048&#45;8f0f&#45;21c3c6ef817d:w&#45;&gt;019b281f&#45;bedf&#45;74d3&#45;b933&#45;15d4af5fa061</title>
<path fill="none" stroke="#666666" d="M229.25,-371.82C187.55,-365.39 159.65,-320.7 143.39,-283.56"/>
<polygon fill="#666666" stroke="#666666" points="229.25,-371.81 238.87,-377.06 234.56,-372.22 238.88,-372.55 238.88,-372.55 238.88,-372.55 234.56,-372.22 239.56,-368.09 229.25,-371.81"/>
</g>
<!-- 019b2829&#45;bef7&#45;7017&#45;83c3&#45;19f7ea771f00 -->
<g id="019b2829&#45;bef7&#45;7017&#45;83c3&#45;19f7ea771f00" class="node">
<title>019b2829&#45;bef7&#45;7017&#45;83c3&#45;19f7ea771f00</title>
<polygon fill="#a6f2f2" stroke="none" points="256.22,-267.6 256.22,-292 458.86,-292 458.86,-267.6 256.22,-267.6"/>
<polygon fill="none" stroke="black" points="256.22,-267.6 256.22,-292 458.86,-292 458.86,-267.6 256.22,-267.6"/>
<text xml:space="preserve" text-anchor="start" x="326.2" y="-277.2" font-family="sans-serif" font-weight="bold" font-size="12.00">    users  </text>
<polygon fill="none" stroke="black" points="256.22,-243.2 256.22,-267.6 368.87,-267.6 368.87,-243.2 256.22,-243.2"/>
<text xml:space="preserve" text-anchor="start" x="261.22" y="-251.8" font-family="sans-serif" font-size="12.00">created    </text>
<polygon fill="none" stroke="black" points="368.87,-243.2 368.87,-267.6 458.86,-267.6 458.86,-243.2 368.87,-243.2"/>
<text xml:space="preserve" text-anchor="start" x="373.87" y="-251.8" font-family="sans-serif" font-size="12.00">timestamp     </text>
<polygon fill="none" stroke="black" points="256.22,-218.8 256.22,-243.2 368.87,-243.2 368.87,-218.8 256.22,-218.8"/>
<text xml:space="preserve" text-anchor="start" x="261.22" y="-227.4" font-family="sans-serif" font-size="12.00">signed_in     </text>
<polygon fill="none" stroke="black" points="368.87,-218.8 368.87,-243.2 458.86,-243.2 458.86,-218.8 368.87,-218.8"/>
<text xml:space="preserve" text-anchor="start" x="373.87" y="-227.4" font-family="sans-serif" font-size="12.00">timestamp     </text>
<polygon fill="none" stroke="black" points="256.22,-194.4 256.22,-218.8 368.87,-218.8 368.87,-194.4 256.22,-194.4"/>
<text xml:space="preserve" text-anchor="start" x="261.22" y="-203" font-family="sans-serif" font-size="12.00">username     </text>
<polygon fill="none" stroke="black" points="368.87,-194.4 368.87,-218.8 458.86,-218.8 458.86,-194.4 368.87,-194.4"/>
<text xml:space="preserve" text-anchor="start" x="373.87" y="-203" font-family="sans-serif" font-size="12.00">text   </text>
<polygon fill="none" stroke="black" points="256.22,-170 256.22,-194.4 368.87,-194.4 368.87,-170 256.22,-170"/>
<text xml:space="preserve" text-anchor="start" x="261.22" y="-178.6" font-family="sans-serif" font-size="12.00">display_name      </text>
<polygon fill="none" stroke="black" points="368.87,-170 368.87,-194.4 458.86,-194.4 458.86,-170 368.87,-170"/>
<text xml:space="preserve" text-anchor="start" x="373.87" y="-178.6" font-family="sans-serif" font-size="12.00">text   </text>
</g>
<!-- 019b2816&#45;7c3a&#45;7048&#45;8f0f&#45;21c3c6ef817d&#45;&gt;019b2829&#45;bef7&#45;7017&#45;83c3&#45;19f7ea771f00 -->
<g id="019b2829&#45;f6f8&#45;7204&#45;9585&#45;7dd15dc1315e" class="edge">
<title>019b2816&#45;7c3a&#45;7048&#45;8f0f&#45;21c3c6ef817d:w&#45;&gt;019b2829&#45;bef7&#45;7017&#45;83c3&#45;19f7ea771f00</title>
<path fill="none" stroke="#666666" d="M229.28,-347.06C211.23,-341.84 232.97,-319.5 263.37,-295.88"/>
<polygon fill="#666666" stroke="#666666" points="229.28,-347.06 238.72,-352.64 234.58,-347.65 238.89,-348.13 238.89,-348.13 238.89,-348.13 234.58,-347.65 239.71,-343.69 229.28,-347.06"/>
</g>
<!-- 019b282d&#45;ec81&#45;718f&#45;af71&#45;5e3d0f841924 -->
<g id="019b282d&#45;ec81&#45;718f&#45;af71&#45;5e3d0f841924" class="node">
<title>019b282d&#45;ec81&#45;718f&#45;af71&#45;5e3d0f841924</title>
<polygon fill="#a6f2f2" stroke="none" points="28.22,-101.6 28.22,-126 224.86,-126 224.86,-101.6 28.22,-101.6"/>
<polygon fill="none" stroke="black" points="28.22,-101.6 28.22,-126 224.86,-126 224.86,-101.6 28.22,-101.6"/>
<text xml:space="preserve" text-anchor="start" x="74.52" y="-111.2" font-family="sans-serif" font-weight="bold" font-size="12.00">      snapshots   </text>
<polygon fill="none" stroke="black" points="28.22,-77.2 28.22,-101.6 134.87,-101.6 134.87,-77.2 28.22,-77.2"/>
<text xml:space="preserve" text-anchor="start" x="33.22" y="-85.8" font-family="sans-serif" font-size="12.00">content    </text>
<polygon fill="none" stroke="black" points="134.87,-77.2 134.87,-101.6 224.86,-101.6 224.86,-77.2 134.87,-77.2"/>
<text xml:space="preserve" text-anchor="start" x="139.87" y="-85.8" font-family="sans-serif" font-size="12.00">jsonb    </text>
<polygon fill="none" stroke="black" points="28.22,-52.8 28.22,-77.2 134.87,-77.2 134.87,-52.8 28.22,-52.8"/>
<text xml:space="preserve" text-anchor="start" x="33.22" y="-61.4" font-family="sans-serif" font-size="12.00">last_updated      </text>
<polygon fill="none" stroke="black" points="134.87,-52.8 134.87,-77.2 224.86,-77.2 224.86,-52.8 134.87,-52.8"/>
<text xml:space="preserve" text-anchor="start" x="139.87" y="-61.4" font-family="sans-serif" font-size="12.00">timestamp     </text>
<polygon fill="none" stroke="black" points="28.22,-28.4 28.22,-52.8 134.87,-52.8 134.87,-28.4 28.22,-28.4"/>
<text xml:space="preserve" text-anchor="start" x="33.22" y="-37" font-family="sans-serif" font-size="12.00">doc_id    </text>
<polygon fill="none" stroke="black" points="134.87,-28.4 134.87,-52.8 224.86,-52.8 224.86,-28.4 134.87,-28.4"/>
<text xml:space="preserve" text-anchor="start" x="139.87" y="-37" font-family="sans-serif" font-size="12.00">text   </text>
<polygon fill="none" stroke="black" points="28.22,-4 28.22,-28.4 134.87,-28.4 134.87,-4 28.22,-4"/>
<text xml:space="preserve" text-anchor="start" x="33.22" y="-12.6" font-family="sans-serif" font-size="12.00">for_ref    </text>
<polygon fill="none" stroke="black" points="134.87,-4 134.87,-28.4 224.86,-28.4 224.86,-4 134.87,-4"/>
<text xml:space="preserve" text-anchor="start" x="139.87" y="-12.6" font-family="sans-serif" font-size="12.00">→ refs    </text>
</g>
<!-- 019b281f&#45;bedf&#45;74d3&#45;b933&#45;15d4af5fa061&#45;&gt;019b282d&#45;ec81&#45;718f&#45;af71&#45;5e3d0f841924 -->
<g id="019b282e&#45;08f9&#45;755b&#45;b96a&#45;0d159a1d9ed1" class="edge">
<title>019b281f&#45;bedf&#45;74d3&#45;b933&#45;15d4af5fa061:w&#45;&gt;019b282d&#45;ec81&#45;718f&#45;af71&#45;5e3d0f841924</title>
<path fill="none" stroke="#666666" d="M17.27,-193.12C-2.62,-186.82 20.44,-158.27 50.42,-129.82"/>
<polygon fill="#666666" stroke="#666666" points="17.29,-193.12 26.66,-198.82 22.59,-193.78 26.89,-194.32 26.89,-194.32 26.89,-194.32 22.59,-193.78 27.77,-189.89 17.29,-193.12"/>
</g>
<!-- 019b282d&#45;ec81&#45;718f&#45;af71&#45;5e3d0f841924&#45;&gt;019b281f&#45;bedf&#45;74d3&#45;b933&#45;15d4af5fa061 -->
<g id="019b2839&#45;41f4&#45;712c&#45;a78c&#45;0ec6372a503f" class="edge">
<title>019b282d&#45;ec81&#45;718f&#45;af71&#45;5e3d0f841924:w&#45;&gt;019b281f&#45;bedf&#45;74d3&#45;b933&#45;15d4af5fa061</title>
<path fill="none" stroke="#666666" d="M17.29,-17.27C-18.64,-26.04 10.4,-86.7 28.22,-130 35.54,-147.81 47.71,-164.2 60.99,-178.34"/>
<polygon fill="#666666" stroke="#666666" points="16.94,-17.31 27.37,-20.71 22.24,-16.74 26.55,-16.27 26.55,-16.27 26.55,-16.27 22.24,-16.74 26.4,-11.76 16.94,-17.31"/>
</g>
<!-- 019b283f&#45;3445&#45;72bf&#45;8102&#45;98cb3c2617e8 -->
<g id="019b283f&#45;3445&#45;72bf&#45;8102&#45;98cb3c2617e8" class="node">
<title>019b283f&#45;3445&#45;72bf&#45;8102&#45;98cb3c2617e8</title>
<polygon fill="#a6f2f2" stroke="none" points="476.55,-397 476.55,-421.4 584.52,-421.4 584.52,-397 476.55,-397"/>
<polygon fill="none" stroke="black" points="476.55,-397 476.55,-421.4 584.52,-421.4 584.52,-397 476.55,-397"/>
<text xml:space="preserve" text-anchor="start" x="487.88" y="-406.6" font-family="sans-serif" font-weight="bold" font-size="12.00">     storage   </text>
<polygon fill="none" stroke="black" points="476.55,-372.6 476.55,-397 524.54,-397 524.54,-372.6 476.55,-372.6"/>
<text xml:space="preserve" text-anchor="start" x="481.55" y="-381.2" font-family="sans-serif" font-size="12.00">key   </text>
<polygon fill="none" stroke="black" points="524.54,-372.6 524.54,-397 584.52,-397 584.52,-372.6 524.54,-372.6"/>
<text xml:space="preserve" text-anchor="start" x="529.54" y="-381.2" font-family="sans-serif" font-size="12.00">text[]    </text>
<polygon fill="none" stroke="black" points="476.55,-348.2 476.55,-372.6 524.54,-372.6 524.54,-348.2 476.55,-348.2"/>
<text xml:space="preserve" text-anchor="start" x="481.55" y="-356.8" font-family="sans-serif" font-size="12.00">data   </text>
<polygon fill="none" stroke="black" points="524.54,-348.2 524.54,-372.6 584.52,-372.6 584.52,-348.2 524.54,-348.2"/>
<text xml:space="preserve" text-anchor="start" x="529.54" y="-356.8" font-family="sans-serif" font-size="12.00">bytea    </text>
</g>
</g>
</svg>
