<?xml version="1.0" encoding="UTF-8" standalone="no"?>
<!DOCTYPE svg PUBLIC "-//W3C//DTD SVG 1.1//EN"
 "http://www.w3.org/Graphics/SVG/1.1/DTD/svg11.dtd">
<!-- Generated by graphviz version 13.1.0 (20250701.0955)
 -->
<!-- Pages: 1 -->
<svg width="656pt" height="564pt"
 viewBox="0.00 0.00 656.00 564.00" xmlns="http://www.w3.org/2000/svg" xmlns:xlink="http://www.w3.org/1999/xlink">
<g id="graph0" class="graph" transform="scale(1 1) rotate(0) translate(4 559.81)">
<!-- 019b2816&#45;7c3a&#45;7048&#45;8f0f&#45;21c3c6ef817d -->
<g id="019b2816&#45;7c3a&#45;7048&#45;8f0f&#45;21c3c6ef817d" class="node">
<title>019b2816&#45;7c3a&#45;7048&#45;8f0f&#45;21c3c6ef817d</title>
<polygon fill="#a6f2f2" stroke="none" points="296.24,-527.41 296.24,-551.81 498.22,-551.81 498.22,-527.41 296.24,-527.41"/>
<polygon fill="none" stroke="black" points="296.24,-527.41 296.24,-551.81 498.22,-551.81 498.22,-527.41 296.24,-527.41"/>
<text xml:space="preserve" text-anchor="start" x="333.89" y="-537.01" font-family="sans-serif" font-weight="bold" font-size="12.00">       permissions    </text>
<polygon fill="none" stroke="black" points="296.24,-503.01 296.24,-527.41 364.23,-527.41 364.23,-503.01 296.24,-503.01"/>
<text xml:space="preserve" text-anchor="start" x="301.24" y="-511.61" font-family="sans-serif" font-size="12.00">level    </text>
<polygon fill="none" stroke="black" points="364.23,-503.01 364.23,-527.41 498.22,-527.41 498.22,-503.01 364.23,-503.01"/>
<text xml:space="preserve" text-anchor="start" x="369.23" y="-511.61" font-family="sans-serif" font-size="12.00">permission_level       </text>
<polygon fill="none" stroke="black" points="296.24,-478.61 296.24,-503.01 364.23,-503.01 364.23,-478.61 296.24,-478.61"/>
<text xml:space="preserve" text-anchor="start" x="301.24" y="-487.21" font-family="sans-serif" font-size="12.00">object    </text>
<polygon fill="none" stroke="black" points="364.23,-478.61 364.23,-503.01 498.22,-503.01 498.22,-478.61 364.23,-478.61"/>
<text xml:space="preserve" text-anchor="start" x="369.23" y="-487.21" font-family="sans-serif" font-size="12.00">→ refs    </text>
<polygon fill="none" stroke="black" points="296.24,-454.21 296.24,-478.61 364.23,-478.61 364.23,-454.21 296.24,-454.21"/>
<text xml:space="preserve" text-anchor="start" x="301.24" y="-462.81" font-family="sans-serif" font-size="12.00">subject    </text>
<polygon fill="none" stroke="black" points="364.23,-454.21 364.23,-478.61 498.22,-478.61 498.22,-454.21 364.23,-454.21"/>
<text xml:space="preserve" text-anchor="start" x="369.23" y="-462.81" font-family="sans-serif" font-size="12.00">→ users    </text>
</g>
<!-- 019b281f&#45;bedf&#45;74d3&#45;b933&#45;15d4af5fa061 -->
<g id="019b281f&#45;bedf&#45;74d3&#45;b933&#45;15d4af5fa061" class="node">
<title>019b281f&#45;bedf&#45;74d3&#45;b933&#45;15d4af5fa061</title>
<polygon fill="#a6f2f2" stroke="none" points="22.71,-373.61 22.71,-398.01 285.75,-398.01 285.75,-373.61 22.71,-373.61"/>
<polygon fill="none" stroke="black" points="22.71,-373.61 22.71,-398.01 285.75,-398.01 285.75,-373.61 22.71,-373.61"/>
<text xml:space="preserve" text-anchor="start" x="126.57" y="-383.21" font-family="sans-serif" font-weight="bold" font-size="12.00">    refs  </text>
<polygon fill="none" stroke="black" points="22.71,-349.21 22.71,-373.61 156.69,-373.61 156.69,-349.21 22.71,-349.21"/>
<text xml:space="preserve" text-anchor="start" x="27.71" y="-357.81" font-family="sans-serif" font-size="12.00">id  </text>
<polygon fill="none" stroke="black" points="156.69,-349.21 156.69,-373.61 285.75,-373.61 285.75,-349.21 156.69,-349.21"/>
<text xml:space="preserve" text-anchor="start" x="161.69" y="-357.81" font-family="sans-serif" font-size="12.00">uuid   </text>
<polygon fill="none" stroke="black" points="22.71,-324.81 22.71,-349.21 156.69,-349.21 156.69,-324.81 22.71,-324.81"/>
<text xml:space="preserve" text-anchor="start" x="27.71" y="-333.41" font-family="sans-serif" font-size="12.00">created    </text>
<polygon fill="none" stroke="black" points="156.69,-324.81 156.69,-349.21 285.75,-349.21 285.75,-324.81 156.69,-324.81"/>
<text xml:space="preserve" text-anchor="start" x="161.69" y="-333.41" font-family="sans-serif" font-size="12.00">timestamp     </text>
<polygon fill="none" stroke="black" points="22.71,-300.41 22.71,-324.81 156.69,-324.81 156.69,-300.41 22.71,-300.41"/>
<text xml:space="preserve" text-anchor="start" x="27.71" y="-309.01" font-family="sans-serif" font-size="12.00">deleted_at     </text>
<polygon fill="none" stroke="black" points="156.69,-300.41 156.69,-324.81 285.75,-324.81 285.75,-300.41 156.69,-300.41"/>
<text xml:space="preserve" text-anchor="start" x="161.69" y="-309.01" font-family="sans-serif" font-size="12.00">timestamp | null       </text>
<polygon fill="none" stroke="black" points="22.71,-276.01 22.71,-300.41 156.69,-300.41 156.69,-276.01 22.71,-276.01"/>
<text xml:space="preserve" text-anchor="start" x="27.71" y="-284.61" font-family="sans-serif" font-size="12.00">doc_id    </text>
<polygon fill="none" stroke="black" points="156.69,-276.01 156.69,-300.41 285.75,-300.41 285.75,-276.01 156.69,-276.01"/>
<text xml:space="preserve" text-anchor="start" x="161.69" y="-284.61" font-family="sans-serif" font-size="12.00">text   </text>
<polygon fill="none" stroke="black" points="22.71,-251.61 22.71,-276.01 156.69,-276.01 156.69,-251.61 22.71,-251.61"/>
<text xml:space="preserve" text-anchor="start" x="27.71" y="-260.21" font-family="sans-serif" font-size="12.00">current_snapshot       </text>
<polygon fill="none" stroke="black" points="156.69,-251.61 156.69,-276.01 285.75,-276.01 285.75,-251.61 156.69,-251.61"/>
<text xml:space="preserve" text-anchor="start" x="161.69" y="-260.21" font-family="sans-serif" font-size="12.00">→ snapshots      </text>
</g>
<!-- 019b2816&#45;7c3a&#45;7048&#45;8f0f&#45;21c3c6ef817d&#45;&gt;019b281f&#45;bedf&#45;74d3&#45;b933&#45;15d4af5fa061 -->
<g id="019b2827&#45;5513&#45;75af&#45;bab5&#45;b0f0c5cb8a4b" class="edge">
<title>019b2816&#45;7c3a&#45;7048&#45;8f0f&#45;21c3c6ef817d:w&#45;&gt;019b281f&#45;bedf&#45;74d3&#45;b933&#45;15d4af5fa061</title>
<path fill="none" stroke="#666666" d="M285.01,-490.19C239.45,-484.55 206.36,-441.96 184.86,-401.55"/>
<polygon fill="#666666" stroke="#666666" points="284.93,-490.18 294.63,-495.28 290.25,-490.51 294.57,-490.77 294.57,-490.77 294.57,-490.77 290.25,-490.51 295.18,-486.3 284.93,-490.18"/>
</g>
<!-- 019b2829&#45;bef7&#45;7017&#45;83c3&#45;19f7ea771f00 -->
<g id="019b2829&#45;bef7&#45;7017&#45;83c3&#45;19f7ea771f00" class="node">
<title>019b2829&#45;bef7&#45;7017&#45;83c3&#45;19f7ea771f00</title>
<polygon fill="#a6f2f2" stroke="none" points="319.37,-385.81 319.37,-410.21 561.09,-410.21 561.09,-385.81 319.37,-385.81"/>
<polygon fill="none" stroke="black" points="319.37,-385.81 319.37,-410.21 561.09,-410.21 561.09,-385.81 319.37,-385.81"/>
<text xml:space="preserve" text-anchor="start" x="408.9" y="-395.41" font-family="sans-serif" font-weight="bold" font-size="12.00">    users  </text>
<polygon fill="none" stroke="black" points="319.37,-361.41 319.37,-385.81 432.02,-385.81 432.02,-361.41 319.37,-361.41"/>
<text xml:space="preserve" text-anchor="start" x="324.37" y="-370.01" font-family="sans-serif" font-size="12.00">id  </text>
<polygon fill="none" stroke="black" points="432.02,-361.41 432.02,-385.81 561.09,-385.81 561.09,-361.41 432.02,-361.41"/>
<text xml:space="preserve" text-anchor="start" x="437.02" y="-370.01" font-family="sans-serif" font-size="12.00">uuid   </text>
<polygon fill="none" stroke="black" points="319.37,-337.01 319.37,-361.41 432.02,-361.41 432.02,-337.01 319.37,-337.01"/>
<text xml:space="preserve" text-anchor="start" x="324.37" y="-345.61" font-family="sans-serif" font-size="12.00">created    </text>
<polygon fill="none" stroke="black" points="432.02,-337.01 432.02,-361.41 561.09,-361.41 561.09,-337.01 432.02,-337.01"/>
<text xml:space="preserve" text-anchor="start" x="437.02" y="-345.61" font-family="sans-serif" font-size="12.00">timestamp     </text>
<polygon fill="none" stroke="black" points="319.37,-312.61 319.37,-337.01 432.02,-337.01 432.02,-312.61 319.37,-312.61"/>
<text xml:space="preserve" text-anchor="start" x="324.37" y="-321.21" font-family="sans-serif" font-size="12.00">signed_in     </text>
<polygon fill="none" stroke="black" points="432.02,-312.61 432.02,-337.01 561.09,-337.01 561.09,-312.61 432.02,-312.61"/>
<text xml:space="preserve" text-anchor="start" x="437.02" y="-321.21" font-family="sans-serif" font-size="12.00">timestamp | null       </text>
<polygon fill="none" stroke="black" points="319.37,-288.21 319.37,-312.61 432.02,-312.61 432.02,-288.21 319.37,-288.21"/>
<text xml:space="preserve" text-anchor="start" x="324.37" y="-296.81" font-family="sans-serif" font-size="12.00">username     </text>
<polygon fill="none" stroke="black" points="432.02,-288.21 432.02,-312.61 561.09,-312.61 561.09,-288.21 432.02,-288.21"/>
<text xml:space="preserve" text-anchor="start" x="437.02" y="-296.81" font-family="sans-serif" font-size="12.00">text | null      </text>
<polygon fill="none" stroke="black" points="319.37,-263.81 319.37,-288.21 432.02,-288.21 432.02,-263.81 319.37,-263.81"/>
<text xml:space="preserve" text-anchor="start" x="324.37" y="-272.41" font-family="sans-serif" font-size="12.00">display_name      </text>
<polygon fill="none" stroke="black" points="432.02,-263.81 432.02,-288.21 561.09,-288.21 561.09,-263.81 432.02,-263.81"/>
<text xml:space="preserve" text-anchor="start" x="437.02" y="-272.41" font-family="sans-serif" font-size="12.00">text | null      </text>
<polygon fill="none" stroke="black" points="319.37,-239.41 319.37,-263.81 432.02,-263.81 432.02,-239.41 319.37,-239.41"/>
<text xml:space="preserve" text-anchor="start" x="324.37" y="-248.01" font-family="sans-serif" font-size="12.00">state_doc_id      </text>
<polygon fill="none" stroke="black" points="432.02,-239.41 432.02,-263.81 561.09,-263.81 561.09,-239.41 432.02,-239.41"/>
<text xml:space="preserve" text-anchor="start" x="437.02" y="-248.01" font-family="sans-serif" font-size="12.00">text | null      </text>
</g>
<!-- 019b2816&#45;7c3a&#45;7048&#45;8f0f&#45;21c3c6ef817d&#45;&gt;019b2829&#45;bef7&#45;7017&#45;83c3&#45;19f7ea771f00 -->
<g id="019b2829&#45;f6f8&#45;7204&#45;9585&#45;7dd15dc1315e" class="edge">
<title>019b2816&#45;7c3a&#45;7048&#45;8f0f&#45;21c3c6ef817d:w&#45;&gt;019b2829&#45;bef7&#45;7017&#45;83c3&#45;19f7ea771f00</title>
<path fill="none" stroke="#666666" d="M284.95,-465.57C262.21,-461.04 280.52,-438.97 311.44,-413.66"/>
<polygon fill="#666666" stroke="#666666" points="284.94,-465.57 294.54,-470.87 290.26,-466 294.58,-466.36 294.58,-466.36 294.58,-466.36 290.26,-466 295.28,-461.9 284.94,-465.57"/>
</g>
<!-- 019b282d&#45;ec81&#45;718f&#45;af71&#45;5e3d0f841924 -->
<g id="019b282d&#45;ec81&#45;718f&#45;af71&#45;5e3d0f841924" class="node">
<title>019b282d&#45;ec81&#45;718f&#45;af71&#45;5e3d0f841924</title>
<polygon fill="#a6f2f2" stroke="none" points="39.25,-171.01 39.25,-195.41 233.21,-195.41 233.21,-171.01 39.25,-171.01"/>
<polygon fill="none" stroke="black" points="39.25,-171.01 39.25,-195.41 233.21,-195.41 233.21,-171.01 39.25,-171.01"/>
<text xml:space="preserve" text-anchor="start" x="84.22" y="-180.61" font-family="sans-serif" font-weight="bold" font-size="12.00">      snapshots   </text>
<polygon fill="none" stroke="black" points="39.25,-146.61 39.25,-171.01 128.54,-171.01 128.54,-146.61 39.25,-146.61"/>
<text xml:space="preserve" text-anchor="start" x="44.25" y="-155.21" font-family="sans-serif" font-size="12.00">id  </text>
<polygon fill="none" stroke="black" points="128.54,-146.61 128.54,-171.01 233.21,-171.01 233.21,-146.61 128.54,-146.61"/>
<text xml:space="preserve" text-anchor="start" x="133.54" y="-155.21" font-family="sans-serif" font-size="12.00">int   </text>
<polygon fill="none" stroke="black" points="39.25,-122.21 39.25,-146.61 128.54,-146.61 128.54,-122.21 39.25,-122.21"/>
<text xml:space="preserve" text-anchor="start" x="44.25" y="-130.81" font-family="sans-serif" font-size="12.00">content    </text>
<polygon fill="none" stroke="black" points="128.54,-122.21 128.54,-146.61 233.21,-146.61 233.21,-122.21 128.54,-122.21"/>
<text xml:space="preserve" text-anchor="start" x="133.54" y="-130.81" font-family="sans-serif" font-size="12.00">jsonb    </text>
<polygon fill="none" stroke="black" points="39.25,-97.81 39.25,-122.21 128.54,-122.21 128.54,-97.81 39.25,-97.81"/>
<text xml:space="preserve" text-anchor="start" x="44.25" y="-106.41" font-family="sans-serif" font-size="12.00">created_at     </text>
<polygon fill="none" stroke="black" points="128.54,-97.81 128.54,-122.21 233.21,-122.21 233.21,-97.81 128.54,-97.81"/>
<text xml:space="preserve" text-anchor="start" x="133.54" y="-106.41" font-family="sans-serif" font-size="12.00">timestamp     </text>
<polygon fill="none" stroke="black" points="39.25,-73.41 39.25,-97.81 128.54,-97.81 128.54,-73.41 39.25,-73.41"/>
<text xml:space="preserve" text-anchor="start" x="44.25" y="-82.01" font-family="sans-serif" font-size="12.00">heads    </text>
<polygon fill="none" stroke="black" points="128.54,-73.41 128.54,-97.81 233.21,-97.81 233.21,-73.41 128.54,-73.41"/>
<text xml:space="preserve" text-anchor="start" x="133.54" y="-82.01" font-family="sans-serif" font-size="12.00">bytea[]    </text>
<polygon fill="none" stroke="black" points="39.25,-49.01 39.25,-73.41 128.54,-73.41 128.54,-49.01 39.25,-49.01"/>
<text xml:space="preserve" text-anchor="start" x="44.25" y="-57.61" font-family="sans-serif" font-size="12.00">for_ref    </text>
<polygon fill="none" stroke="black" points="128.54,-49.01 128.54,-73.41 233.21,-73.41 233.21,-49.01 128.54,-49.01"/>
<text xml:space="preserve" text-anchor="start" x="133.54" y="-57.61" font-family="sans-serif" font-size="12.00">→ refs    </text>
<polygon fill="none" stroke="black" points="39.25,-24.61 39.25,-49.01 128.54,-49.01 128.54,-24.61 39.25,-24.61"/>
<text xml:space="preserve" text-anchor="start" x="44.25" y="-33.21" font-family="sans-serif" font-size="12.00">parent    </text>
<polygon fill="none" stroke="black" points="128.54,-24.61 128.54,-49.01 233.21,-49.01 233.21,-24.61 128.54,-24.61"/>
<text xml:space="preserve" text-anchor="start" x="133.54" y="-33.21" font-family="sans-serif" font-size="12.00">→ snapshots      </text>
</g>
<!-- 019b281f&#45;bedf&#45;74d3&#45;b933&#45;15d4af5fa061&#45;&gt;019b282d&#45;ec81&#45;718f&#45;af71&#45;5e3d0f841924 -->
<g id="019b282e&#45;08f9&#45;755b&#45;b96a&#45;0d159a1d9ed1" class="edge">
<title>019b281f&#45;bedf&#45;74d3&#45;b933&#45;15d4af5fa061:w&#45;&gt;019b282d&#45;ec81&#45;718f&#45;af71&#45;5e3d0f841924</title>
<path fill="none" stroke="#666666" d="M11.51,-262.82C-12.21,-257.27 6.28,-229.4 35.58,-199.01"/>
<polygon fill="#666666" stroke="#666666" points="11.42,-262.81 20.94,-268.26 16.73,-263.33 21.04,-263.75 21.04,-263.75 21.04,-263.75 16.73,-263.33 21.81,-259.3 11.42,-262.81"/>
</g>
<!-- 019b282d&#45;ec81&#45;718f&#45;af71&#45;5e3d0f841924&#45;&gt;019b281f&#45;bedf&#45;74d3&#45;b933&#45;15d4af5fa061 -->
<g id="019b2839&#45;41f4&#45;712c&#45;a78c&#45;0ec6372a503f" class="edge">
<title>019b282d&#45;ec81&#45;718f&#45;af71&#45;5e3d0f841924:w&#45;&gt;019b281f&#45;bedf&#45;74d3&#45;b933&#45;15d4af5fa061</title>
<path fill="none" stroke="#666666" d="M27.89,-62.14C-18.27,-71.25 18.07,-145.86 39.25,-199.41 46.06,-216.64 56.49,-232.93 68.33,-247.68"/>
<polygon fill="#666666" stroke="#666666" points="27.95,-62.13 38.31,-65.72 33.27,-61.66 37.58,-61.27 37.58,-61.27 37.58,-61.27 33.27,-61.66 37.51,-56.76 27.95,-62.13"/>
</g>
<!-- 019b282d&#45;ec81&#45;718f&#45;af71&#45;5e3d0f841924&#45;&gt;019b282d&#45;ec81&#45;718f&#45;af71&#45;5e3d0f841924 -->
<g id="019d3f5d&#45;cb26&#45;73e9&#45;8019&#45;deab747193cc" class="edge">
<title>019b282d&#45;ec81&#45;718f&#45;af71&#45;5e3d0f841924:w&#45;&gt;019b282d&#45;ec81&#45;718f&#45;af71&#45;5e3d0f841924</title>
<path fill="none" stroke="#666666" d="M36.49,-26.84C23.71,16.49 13.25,10.89 13.25,-73.41 13.25,-99.87 20.28,-118.57 31.27,-130.45"/>
<polygon fill="#666666" stroke="#666666" points="36.49,-26.85 34.82,-37.69 37.91,-31.99 39.07,-36.17 39.07,-36.17 39.07,-36.17 37.91,-31.99 43.49,-35.29 36.49,-26.85"/>
</g>
<!-- 019b283f&#45;3445&#45;72bf&#45;8102&#45;98cb3c2617e8 -->
<g id="019b283f&#45;3445&#45;72bf&#45;8102&#45;98cb3c2617e8" class="node">
<title>019b283f&#45;3445&#45;72bf&#45;8102&#45;98cb3c2617e8</title>
<polygon fill="#a6f2f2" stroke="none" points="532.24,-515.21 532.24,-539.61 640.22,-539.61 640.22,-515.21 532.24,-515.21"/>
<polygon fill="none" stroke="black" points="532.24,-515.21 532.24,-539.61 640.22,-539.61 640.22,-515.21 532.24,-515.21"/>
<text xml:space="preserve" text-anchor="start" x="543.57" y="-524.81" font-family="sans-serif" font-weight="bold" font-size="12.00">     storage   </text>
<polygon fill="none" stroke="black" points="532.24,-490.81 532.24,-515.21 580.23,-515.21 580.23,-490.81 532.24,-490.81"/>
<text xml:space="preserve" text-anchor="start" x="537.24" y="-499.41" font-family="sans-serif" font-size="12.00">key   </text>
<polygon fill="none" stroke="black" points="580.23,-490.81 580.23,-515.21 640.22,-515.21 640.22,-490.81 580.23,-490.81"/>
<text xml:space="preserve" text-anchor="start" x="585.23" y="-499.41" font-family="sans-serif" font-size="12.00">text[]    </text>
<polygon fill="none" stroke="black" points="532.24,-466.41 532.24,-490.81 580.23,-490.81 580.23,-466.41 532.24,-466.41"/>
<text xml:space="preserve" text-anchor="start" x="537.24" y="-475.01" font-family="sans-serif" font-size="12.00">data   </text>
<polygon fill="none" stroke="black" points="580.23,-466.41 580.23,-490.81 640.22,-490.81 640.22,-466.41 580.23,-466.41"/>
<text xml:space="preserve" text-anchor="start" x="585.23" y="-475.01" font-family="sans-serif" font-size="12.00">bytea    </text>
</g>
</g>
</svg>
