<?xml version="1.0" encoding="UTF-8" standalone="no"?>
<!DOCTYPE svg PUBLIC "-//W3C//DTD SVG 1.1//EN"
 "http://www.w3.org/Graphics/SVG/1.1/DTD/svg11.dtd">
<!-- Generated by graphviz version 13.1.0 (20250701.0955)
 -->
<!-- Pages: 1 -->
<svg width="712pt" height="564pt"
 viewBox="0.00 0.00 712.00 564.00" xmlns="http://www.w3.org/2000/svg" xmlns:xlink="http://www.w3.org/1999/xlink">
<g id="graph0" class="graph" transform="scale(1 1) rotate(0) translate(4 559.81)">
<!-- 019b2816&#45;7c3a&#45;7048&#45;8f0f&#45;21c3c6ef817d -->
<g id="019b2816&#45;7c3a&#45;7048&#45;8f0f&#45;21c3c6ef817d" class="node">
<title>019b2816&#45;7c3a&#45;7048&#45;8f0f&#45;21c3c6ef817d</title>
<polygon fill="#a6f2f2" stroke="none" points="352.29,-527.41 352.29,-551.81 554.26,-551.81 554.26,-527.41 352.29,-527.41"/>
<polygon fill="none" stroke="black" points="352.29,-527.41 352.29,-551.81 554.26,-551.81 554.26,-527.41 352.29,-527.41"/>
<text xml:space="preserve" text-anchor="start" x="389.94" y="-537.01" font-family="sans-serif" font-weight="bold" font-size="12.00">       permissions    </text>
<polygon fill="none" stroke="black" points="352.29,-503.01 352.29,-527.41 420.28,-527.41 420.28,-503.01 352.29,-503.01"/>
<text xml:space="preserve" text-anchor="start" x="357.29" y="-511.61" font-family="sans-serif" font-size="12.00">level    </text>
<polygon fill="none" stroke="black" points="420.28,-503.01 420.28,-527.41 554.26,-527.41 554.26,-503.01 420.28,-503.01"/>
<text xml:space="preserve" text-anchor="start" x="425.28" y="-511.61" font-family="sans-serif" font-size="12.00">permission_level       </text>
<polygon fill="none" stroke="black" points="352.29,-478.61 352.29,-503.01 420.28,-503.01 420.28,-478.61 352.29,-478.61"/>
<text xml:space="preserve" text-anchor="start" x="357.29" y="-487.21" font-family="sans-serif" font-size="12.00">object    </text>
<polygon fill="none" stroke="black" points="420.28,-478.61 420.28,-503.01 554.26,-503.01 554.26,-478.61 420.28,-478.61"/>
<text xml:space="preserve" text-anchor="start" x="425.28" y="-487.21" font-family="sans-serif" font-size="12.00">→ refs    </text>
<polygon fill="none" stroke="black" points="352.29,-454.21 352.29,-478.61 420.28,-478.61 420.28,-454.21 352.29,-454.21"/>
<text xml:space="preserve" text-anchor="start" x="357.29" y="-462.81" font-family="sans-serif" font-size="12.00">subject    </text>
<polygon fill="none" stroke="black" points="420.28,-454.21 420.28,-478.61 554.26,-478.61 554.26,-454.21 420.28,-454.21"/>
<text xml:space="preserve" text-anchor="start" x="425.28" y="-462.81" font-family="sans-serif" font-size="12.00">→ users    </text>
</g>
<!-- 019b281f&#45;bedf&#45;74d3&#45;b933&#45;15d4af5fa061 -->
<g id="019b281f&#45;bedf&#45;74d3&#45;b933&#45;15d4af5fa061" class="node">
<title>019b281f&#45;bedf&#45;74d3&#45;b933&#45;15d4af5fa061</title>
<polygon fill="#a6f2f2" stroke="none" points="21.43,-385.81 21.43,-410.21 361.12,-410.21 361.12,-385.81 21.43,-385.81"/>
<polygon fill="none" stroke="black" points="21.43,-385.81 21.43,-410.21 361.12,-410.21 361.12,-385.81 21.43,-385.81"/>
<text xml:space="preserve" text-anchor="start" x="163.62" y="-395.41" font-family="sans-serif" font-weight="bold" font-size="12.00">    refs  </text>
<polygon fill="none" stroke="black" points="21.43,-361.41 21.43,-385.81 232.06,-385.81 232.06,-361.41 21.43,-361.41"/>
<text xml:space="preserve" text-anchor="start" x="26.43" y="-370.01" font-family="sans-serif" font-size="12.00">id  </text>
<polygon fill="none" stroke="black" points="232.06,-361.41 232.06,-385.81 361.12,-385.81 361.12,-361.41 232.06,-361.41"/>
<text xml:space="preserve" text-anchor="start" x="237.06" y="-370.01" font-family="sans-serif" font-size="12.00">uuid   </text>
<polygon fill="none" stroke="black" points="21.43,-337.01 21.43,-361.41 232.06,-361.41 232.06,-337.01 21.43,-337.01"/>
<text xml:space="preserve" text-anchor="start" x="26.43" y="-345.61" font-family="sans-serif" font-size="12.00">created    </text>
<polygon fill="none" stroke="black" points="232.06,-337.01 232.06,-361.41 361.12,-361.41 361.12,-337.01 232.06,-337.01"/>
<text xml:space="preserve" text-anchor="start" x="237.06" y="-345.61" font-family="sans-serif" font-size="12.00">timestamp     </text>
<polygon fill="none" stroke="black" points="21.43,-312.61 21.43,-337.01 232.06,-337.01 232.06,-312.61 21.43,-312.61"/>
<text xml:space="preserve" text-anchor="start" x="26.43" y="-321.21" font-family="sans-serif" font-size="12.00">deleted_at     </text>
<polygon fill="none" stroke="black" points="232.06,-312.61 232.06,-337.01 361.12,-337.01 361.12,-312.61 232.06,-312.61"/>
<text xml:space="preserve" text-anchor="start" x="237.06" y="-321.21" font-family="sans-serif" font-size="12.00">timestamp | null       </text>
<polygon fill="none" stroke="black" points="21.43,-288.21 21.43,-312.61 232.06,-312.61 232.06,-288.21 21.43,-288.21"/>
<text xml:space="preserve" text-anchor="start" x="26.43" y="-296.81" font-family="sans-serif" font-size="12.00">doc_id    </text>
<polygon fill="none" stroke="black" points="232.06,-288.21 232.06,-312.61 361.12,-312.61 361.12,-288.21 232.06,-288.21"/>
<text xml:space="preserve" text-anchor="start" x="237.06" y="-296.81" font-family="sans-serif" font-size="12.00">text   </text>
<polygon fill="none" stroke="black" points="21.43,-263.81 21.43,-288.21 232.06,-288.21 232.06,-263.81 21.43,-263.81"/>
<text xml:space="preserve" text-anchor="start" x="26.43" y="-272.41" font-family="sans-serif" font-size="12.00">current_snapshot_updated_at          </text>
<polygon fill="none" stroke="black" points="232.06,-263.81 232.06,-288.21 361.12,-288.21 361.12,-263.81 232.06,-263.81"/>
<text xml:space="preserve" text-anchor="start" x="237.06" y="-272.41" font-family="sans-serif" font-size="12.00">timestamp     </text>
<polygon fill="none" stroke="black" points="21.43,-239.41 21.43,-263.81 232.06,-263.81 232.06,-239.41 21.43,-239.41"/>
<text xml:space="preserve" text-anchor="start" x="26.43" y="-248.01" font-family="sans-serif" font-size="12.00">current_snapshot       </text>
<polygon fill="none" stroke="black" points="232.06,-239.41 232.06,-263.81 361.12,-263.81 361.12,-239.41 232.06,-239.41"/>
<text xml:space="preserve" text-anchor="start" x="237.06" y="-248.01" font-family="sans-serif" font-size="12.00">→ snapshots      </text>
</g>
<!-- 019b2816&#45;7c3a&#45;7048&#45;8f0f&#45;21c3c6ef817d&#45;&gt;019b281f&#45;bedf&#45;74d3&#45;b933&#45;15d4af5fa061 -->
<g id="019b2827&#45;5513&#45;75af&#45;bab5&#45;b0f0c5cb8a4b" class="edge">
<title>019b2816&#45;7c3a&#45;7048&#45;8f0f&#45;21c3c6ef817d:w&#45;&gt;019b281f&#45;bedf&#45;74d3&#45;b933&#45;15d4af5fa061</title>
<path fill="none" stroke="#666666" d="M340.89,-490.24C297.08,-485.39 262.03,-450.5 236.89,-414.11"/>
<polygon fill="#666666" stroke="#666666" points="340.97,-490.24 350.71,-495.29 346.3,-490.54 350.62,-490.78 350.62,-490.78 350.62,-490.78 346.3,-490.54 351.2,-486.3 340.97,-490.24"/>
</g>
<!-- 019b2829&#45;bef7&#45;7017&#45;83c3&#45;19f7ea771f00 -->
<g id="019b2829&#45;bef7&#45;7017&#45;83c3&#45;19f7ea771f00" class="node">
<title>019b2829&#45;bef7&#45;7017&#45;83c3&#45;19f7ea771f00</title>
<polygon fill="#a6f2f2" stroke="none" points="395.42,-385.81 395.42,-410.21 637.13,-410.21 637.13,-385.81 395.42,-385.81"/>
<polygon fill="none" stroke="black" points="395.42,-385.81 395.42,-410.21 637.13,-410.21 637.13,-385.81 395.42,-385.81"/>
<text xml:space="preserve" text-anchor="start" x="484.94" y="-395.41" font-family="sans-serif" font-weight="bold" font-size="12.00">    users  </text>
<polygon fill="none" stroke="black" points="395.42,-361.41 395.42,-385.81 508.07,-385.81 508.07,-361.41 395.42,-361.41"/>
<text xml:space="preserve" text-anchor="start" x="400.42" y="-370.01" font-family="sans-serif" font-size="12.00">id  </text>
<polygon fill="none" stroke="black" points="508.07,-361.41 508.07,-385.81 637.13,-385.81 637.13,-361.41 508.07,-361.41"/>
<text xml:space="preserve" text-anchor="start" x="513.07" y="-370.01" font-family="sans-serif" font-size="12.00">uuid   </text>
<polygon fill="none" stroke="black" points="395.42,-337.01 395.42,-361.41 508.07,-361.41 508.07,-337.01 395.42,-337.01"/>
<text xml:space="preserve" text-anchor="start" x="400.42" y="-345.61" font-family="sans-serif" font-size="12.00">created    </text>
<polygon fill="none" stroke="black" points="508.07,-337.01 508.07,-361.41 637.13,-361.41 637.13,-337.01 508.07,-337.01"/>
<text xml:space="preserve" text-anchor="start" x="513.07" y="-345.61" font-family="sans-serif" font-size="12.00">timestamp     </text>
<polygon fill="none" stroke="black" points="395.42,-312.61 395.42,-337.01 508.07,-337.01 508.07,-312.61 395.42,-312.61"/>
<text xml:space="preserve" text-anchor="start" x="400.42" y="-321.21" font-family="sans-serif" font-size="12.00">signed_in     </text>
<polygon fill="none" stroke="black" points="508.07,-312.61 508.07,-337.01 637.13,-337.01 637.13,-312.61 508.07,-312.61"/>
<text xml:space="preserve" text-anchor="start" x="513.07" y="-321.21" font-family="sans-serif" font-size="12.00">timestamp | null       </text>
<polygon fill="none" stroke="black" points="395.42,-288.21 395.42,-312.61 508.07,-312.61 508.07,-288.21 395.42,-288.21"/>
<text xml:space="preserve" text-anchor="start" x="400.42" y="-296.81" font-family="sans-serif" font-size="12.00">username     </text>
<polygon fill="none" stroke="black" points="508.07,-288.21 508.07,-312.61 637.13,-312.61 637.13,-288.21 508.07,-288.21"/>
<text xml:space="preserve" text-anchor="start" x="513.07" y="-296.81" font-family="sans-serif" font-size="12.00">text | null      </text>
<polygon fill="none" stroke="black" points="395.42,-263.81 395.42,-288.21 508.07,-288.21 508.07,-263.81 395.42,-263.81"/>
<text xml:space="preserve" text-anchor="start" x="400.42" y="-272.41" font-family="sans-serif" font-size="12.00">display_name      </text>
<polygon fill="none" stroke="black" points="508.07,-263.81 508.07,-288.21 637.13,-288.21 637.13,-263.81 508.07,-263.81"/>
<text xml:space="preserve" text-anchor="start" x="513.07" y="-272.41" font-family="sans-serif" font-size="12.00">text | null      </text>
<polygon fill="none" stroke="black" points="395.42,-239.41 395.42,-263.81 508.07,-263.81 508.07,-239.41 395.42,-239.41"/>
<text xml:space="preserve" text-anchor="start" x="400.42" y="-248.01" font-family="sans-serif" font-size="12.00">state_doc_id      </text>
<polygon fill="none" stroke="black" points="508.07,-239.41 508.07,-263.81 637.13,-263.81 637.13,-239.41 508.07,-239.41"/>
<text xml:space="preserve" text-anchor="start" x="513.07" y="-248.01" font-family="sans-serif" font-size="12.00">text | null      </text>
</g>
<!-- 019b2816&#45;7c3a&#45;7048&#45;8f0f&#45;21c3c6ef817d&#45;&gt;019b2829&#45;bef7&#45;7017&#45;83c3&#45;19f7ea771f00 -->
<g id="019b2829&#45;f6f8&#45;7204&#45;9585&#45;7dd15dc1315e" class="edge">
<title>019b2816&#45;7c3a&#45;7048&#45;8f0f&#45;21c3c6ef817d:w&#45;&gt;019b2829&#45;bef7&#45;7017&#45;83c3&#45;19f7ea771f00</title>
<path fill="none" stroke="#666666" d="M345.77,-457.65C351.1,-448.15 369.41,-431.93 392.18,-414.06"/>
<polygon fill="#666666" stroke="#666666" points="345.78,-457.67 347.3,-468.53 348.63,-462.18 350.93,-465.85 350.93,-465.85 350.93,-465.85 348.63,-462.18 354.92,-463.73 345.78,-457.67"/>
</g>
<!-- 019b282d&#45;ec81&#45;718f&#45;af71&#45;5e3d0f841924 -->
<g id="019b282d&#45;ec81&#45;718f&#45;af71&#45;5e3d0f841924" class="node">
<title>019b282d&#45;ec81&#45;718f&#45;af71&#45;5e3d0f841924</title>
<polygon fill="#a6f2f2" stroke="none" points="57.29,-171.01 57.29,-195.41 251.26,-195.41 251.26,-171.01 57.29,-171.01"/>
<polygon fill="none" stroke="black" points="57.29,-171.01 57.29,-195.41 251.26,-195.41 251.26,-171.01 57.29,-171.01"/>
<text xml:space="preserve" text-anchor="start" x="102.26" y="-180.61" font-family="sans-serif" font-weight="bold" font-size="12.00">      snapshots   </text>
<polygon fill="none" stroke="black" points="57.29,-146.61 57.29,-171.01 146.59,-171.01 146.59,-146.61 57.29,-146.61"/>
<text xml:space="preserve" text-anchor="start" x="62.29" y="-155.21" font-family="sans-serif" font-size="12.00">id  </text>
<polygon fill="none" stroke="black" points="146.59,-146.61 146.59,-171.01 251.26,-171.01 251.26,-146.61 146.59,-146.61"/>
<text xml:space="preserve" text-anchor="start" x="151.59" y="-155.21" font-family="sans-serif" font-size="12.00">int   </text>
<polygon fill="none" stroke="black" points="57.29,-122.21 57.29,-146.61 146.59,-146.61 146.59,-122.21 57.29,-122.21"/>
<text xml:space="preserve" text-anchor="start" x="62.29" y="-130.81" font-family="sans-serif" font-size="12.00">content    </text>
<polygon fill="none" stroke="black" points="146.59,-122.21 146.59,-146.61 251.26,-146.61 251.26,-122.21 146.59,-122.21"/>
<text xml:space="preserve" text-anchor="start" x="151.59" y="-130.81" font-family="sans-serif" font-size="12.00">jsonb    </text>
<polygon fill="none" stroke="black" points="57.29,-97.81 57.29,-122.21 146.59,-122.21 146.59,-97.81 57.29,-97.81"/>
<text xml:space="preserve" text-anchor="start" x="62.29" y="-106.41" font-family="sans-serif" font-size="12.00">created_at     </text>
<polygon fill="none" stroke="black" points="146.59,-97.81 146.59,-122.21 251.26,-122.21 251.26,-97.81 146.59,-97.81"/>
<text xml:space="preserve" text-anchor="start" x="151.59" y="-106.41" font-family="sans-serif" font-size="12.00">timestamp     </text>
<polygon fill="none" stroke="black" points="57.29,-73.41 57.29,-97.81 146.59,-97.81 146.59,-73.41 57.29,-73.41"/>
<text xml:space="preserve" text-anchor="start" x="62.29" y="-82.01" font-family="sans-serif" font-size="12.00">heads    </text>
<polygon fill="none" stroke="black" points="146.59,-73.41 146.59,-97.81 251.26,-97.81 251.26,-73.41 146.59,-73.41"/>
<text xml:space="preserve" text-anchor="start" x="151.59" y="-82.01" font-family="sans-serif" font-size="12.00">bytea[]    </text>
<polygon fill="none" stroke="black" points="57.29,-49.01 57.29,-73.41 146.59,-73.41 146.59,-49.01 57.29,-49.01"/>
<text xml:space="preserve" text-anchor="start" x="62.29" y="-57.61" font-family="sans-serif" font-size="12.00">for_ref    </text>
<polygon fill="none" stroke="black" points="146.59,-49.01 146.59,-73.41 251.26,-73.41 251.26,-49.01 146.59,-49.01"/>
<text xml:space="preserve" text-anchor="start" x="151.59" y="-57.61" font-family="sans-serif" font-size="12.00">→ refs    </text>
<polygon fill="none" stroke="black" points="57.29,-24.61 57.29,-49.01 146.59,-49.01 146.59,-24.61 57.29,-24.61"/>
<text xml:space="preserve" text-anchor="start" x="62.29" y="-33.21" font-family="sans-serif" font-size="12.00">parent    </text>
<polygon fill="none" stroke="black" points="146.59,-24.61 146.59,-49.01 251.26,-49.01 251.26,-24.61 146.59,-24.61"/>
<text xml:space="preserve" text-anchor="start" x="151.59" y="-33.21" font-family="sans-serif" font-size="12.00">→ snapshots      </text>
</g>
<!-- 019b281f&#45;bedf&#45;74d3&#45;b933&#45;15d4af5fa061&#45;&gt;019b282d&#45;ec81&#45;718f&#45;af71&#45;5e3d0f841924 -->
<g id="019b282e&#45;08f9&#45;755b&#45;b96a&#45;0d159a1d9ed1" class="edge">
<title>019b281f&#45;bedf&#45;74d3&#45;b933&#45;15d4af5fa061:w&#45;&gt;019b282d&#45;ec81&#45;718f&#45;af71&#45;5e3d0f841924</title>
<path fill="none" stroke="#666666" d="M10.29,-250.72C-15.09,-245.31 12.06,-216.14 49.36,-185.84"/>
<polygon fill="#666666" stroke="#666666" points="10.14,-250.71 19.71,-256.07 15.45,-251.17 19.77,-251.55 19.77,-251.55 19.77,-251.55 15.45,-251.17 20.49,-247.1 10.14,-250.71"/>
</g>
<!-- 019b282d&#45;ec81&#45;718f&#45;af71&#45;5e3d0f841924&#45;&gt;019b281f&#45;bedf&#45;74d3&#45;b933&#45;15d4af5fa061 -->
<g id="019b2839&#45;41f4&#45;712c&#45;a78c&#45;0ec6372a503f" class="edge">
<title>019b282d&#45;ec81&#45;718f&#45;af71&#45;5e3d0f841924:w&#45;&gt;019b281f&#45;bedf&#45;74d3&#45;b933&#45;15d4af5fa061</title>
<path fill="none" stroke="#666666" d="M45.91,-62.15C-0.47,-71.36 34.08,-146.71 57.29,-199.41 62.92,-212.19 70.58,-224.26 79.39,-235.47"/>
<polygon fill="#666666" stroke="#666666" points="46,-62.14 56.36,-65.72 51.31,-61.66 55.63,-61.27 55.63,-61.27 55.63,-61.27 51.31,-61.66 55.56,-56.76 46,-62.14"/>
</g>
<!-- 019b282d&#45;ec81&#45;718f&#45;af71&#45;5e3d0f841924&#45;&gt;019b282d&#45;ec81&#45;718f&#45;af71&#45;5e3d0f841924 -->
<g id="019d3f5d&#45;cb26&#45;73e9&#45;8019&#45;deab747193cc" class="edge">
<title>019b282d&#45;ec81&#45;718f&#45;af71&#45;5e3d0f841924:w&#45;&gt;019b282d&#45;ec81&#45;718f&#45;af71&#45;5e3d0f841924</title>
<path fill="none" stroke="#666666" d="M54.53,-26.84C41.75,16.49 31.29,10.89 31.29,-73.41 31.29,-99.87 38.33,-118.57 49.31,-130.45"/>
<polygon fill="#666666" stroke="#666666" points="54.54,-26.85 52.87,-37.69 55.96,-31.99 57.12,-36.17 57.12,-36.17 57.12,-36.17 55.96,-31.99 61.54,-35.29 54.54,-26.85"/>
</g>
<!-- 019b283f&#45;3445&#45;72bf&#45;8102&#45;98cb3c2617e8 -->
<g id="019b283f&#45;3445&#45;72bf&#45;8102&#45;98cb3c2617e8" class="node">
<title>019b283f&#45;3445&#45;72bf&#45;8102&#45;98cb3c2617e8</title>
<polygon fill="#a6f2f2" stroke="none" points="588.29,-515.21 588.29,-539.61 696.26,-539.61 696.26,-515.21 588.29,-515.21"/>
<polygon fill="none" stroke="black" points="588.29,-515.21 588.29,-539.61 696.26,-539.61 696.26,-515.21 588.29,-515.21"/>
<text xml:space="preserve" text-anchor="start" x="599.62" y="-524.81" font-family="sans-serif" font-weight="bold" font-size="12.00">     storage   </text>
<polygon fill="none" stroke="black" points="588.29,-490.81 588.29,-515.21 636.28,-515.21 636.28,-490.81 588.29,-490.81"/>
<text xml:space="preserve" text-anchor="start" x="593.29" y="-499.41" font-family="sans-serif" font-size="12.00">key   </text>
<polygon fill="none" stroke="black" points="636.28,-490.81 636.28,-515.21 696.26,-515.21 696.26,-490.81 636.28,-490.81"/>
<text xml:space="preserve" text-anchor="start" x="641.28" y="-499.41" font-family="sans-serif" font-size="12.00">text[]    </text>
<polygon fill="none" stroke="black" points="588.29,-466.41 588.29,-490.81 636.28,-490.81 636.28,-466.41 588.29,-466.41"/>
<text xml:space="preserve" text-anchor="start" x="593.29" y="-475.01" font-family="sans-serif" font-size="12.00">data   </text>
<polygon fill="none" stroke="black" points="636.28,-466.41 636.28,-490.81 696.26,-490.81 696.26,-466.41 636.28,-466.41"/>
<text xml:space="preserve" text-anchor="start" x="641.28" y="-475.01" font-family="sans-serif" font-size="12.00">bytea    </text>
</g>
</g>
</svg>
