<?xml version="1.0" encoding="UTF-8" standalone="no"?>
<!DOCTYPE svg PUBLIC "-//W3C//DTD SVG 1.1//EN"
 "http://www.w3.org/Graphics/SVG/1.1/DTD/svg11.dtd">
<!-- Generated by graphviz version 13.1.0 (20250701.0955)
 -->
<!-- Pages: 1 -->
<svg width="600pt" height="470pt"
 viewBox="0.00 0.00 600.00 470.00" xmlns="http://www.w3.org/2000/svg" xmlns:xlink="http://www.w3.org/1999/xlink">
<g id="graph0" class="graph" transform="scale(1 1) rotate(0) translate(4 466)">
<!-- 019b2816&#45;7c3a&#45;7048&#45;8f0f&#45;21c3c6ef817d -->
<g id="019b2816&#45;7c3a&#45;7048&#45;8f0f&#45;21c3c6ef817d" class="node">
<title>019b2816&#45;7c3a&#45;7048&#45;8f0f&#45;21c3c6ef817d</title>
<polygon fill="#a6f2f2" stroke="none" points="240.18,-433.6 240.18,-458 442.16,-458 442.16,-433.6 240.18,-433.6"/>
<polygon fill="none" stroke="black" points="240.18,-433.6 240.18,-458 442.16,-458 442.16,-433.6 240.18,-433.6"/>
<text xml:space="preserve" text-anchor="start" x="277.84" y="-443.2" font-family="sans-serif" font-weight="bold" font-size="12.00">       permissions    </text>
<polygon fill="none" stroke="black" points="240.18,-409.2 240.18,-433.6 308.18,-433.6 308.18,-409.2 240.18,-409.2"/>
<text xml:space="preserve" text-anchor="start" x="245.18" y="-417.8" font-family="sans-serif" font-size="12.00">level    </text>
<polygon fill="none" stroke="black" points="308.18,-409.2 308.18,-433.6 442.16,-433.6 442.16,-409.2 308.18,-409.2"/>
<text xml:space="preserve" text-anchor="start" x="313.18" y="-417.8" font-family="sans-serif" font-size="12.00">permission_level       </text>
<polygon fill="none" stroke="black" points="240.18,-384.8 240.18,-409.2 308.18,-409.2 308.18,-384.8 240.18,-384.8"/>
<text xml:space="preserve" text-anchor="start" x="245.18" y="-393.4" font-family="sans-serif" font-size="12.00">object    </text>
<polygon fill="none" stroke="black" points="308.18,-384.8 308.18,-409.2 442.16,-409.2 442.16,-384.8 308.18,-384.8"/>
<text xml:space="preserve" text-anchor="start" x="313.18" y="-393.4" font-family="sans-serif" font-size="12.00">→ refs    </text>
<polygon fill="none" stroke="black" points="240.18,-360.4 240.18,-384.8 308.18,-384.8 308.18,-360.4 240.18,-360.4"/>
<text xml:space="preserve" text-anchor="start" x="245.18" y="-369" font-family="sans-serif" font-size="12.00">subject    </text>
<polygon fill="none" stroke="black" points="308.18,-360.4 308.18,-384.8 442.16,-384.8 442.16,-360.4 308.18,-360.4"/>
<text xml:space="preserve" text-anchor="start" x="313.18" y="-369" font-family="sans-serif" font-size="12.00">→ users    </text>
</g>
<!-- 019b281f&#45;bedf&#45;74d3&#45;b933&#45;15d4af5fa061 -->
<g id="019b281f&#45;bedf&#45;74d3&#45;b933&#45;15d4af5fa061" class="node">
<title>019b281f&#45;bedf&#45;74d3&#45;b933&#45;15d4af5fa061</title>
<polygon fill="#a6f2f2" stroke="none" points="28.18,-267.6 28.18,-292 222.16,-292 222.16,-267.6 28.18,-267.6"/>
<polygon fill="none" stroke="black" points="28.18,-267.6 28.18,-292 222.16,-292 222.16,-267.6 28.18,-267.6"/>
<text xml:space="preserve" text-anchor="start" x="97.51" y="-277.2" font-family="sans-serif" font-weight="bold" font-size="12.00">    refs  </text>
<polygon fill="none" stroke="black" points="28.18,-243.2 28.18,-267.6 117.49,-267.6 117.49,-243.2 28.18,-243.2"/>
<text xml:space="preserve" text-anchor="start" x="33.18" y="-251.8" font-family="sans-serif" font-size="12.00">created    </text>
<polygon fill="none" stroke="black" points="117.49,-243.2 117.49,-267.6 222.16,-267.6 222.16,-243.2 117.49,-243.2"/>
<text xml:space="preserve" text-anchor="start" x="122.49" y="-251.8" font-family="sans-serif" font-size="12.00">timestamp     </text>
<polygon fill="none" stroke="black" points="28.18,-218.8 28.18,-243.2 117.49,-243.2 117.49,-218.8 28.18,-218.8"/>
<text xml:space="preserve" text-anchor="start" x="33.18" y="-227.4" font-family="sans-serif" font-size="12.00">deleted_at     </text>
<polygon fill="none" stroke="black" points="117.49,-218.8 117.49,-243.2 222.16,-243.2 222.16,-218.8 117.49,-218.8"/>
<text xml:space="preserve" text-anchor="start" x="122.49" y="-227.4" font-family="sans-serif" font-size="12.00">timestamp     </text>
<polygon fill="none" stroke="black" points="28.18,-194.4 28.18,-218.8 117.49,-218.8 117.49,-194.4 28.18,-194.4"/>
<text xml:space="preserve" text-anchor="start" x="33.18" y="-203" font-family="sans-serif" font-size="12.00">head   </text>
<polygon fill="none" stroke="black" points="117.49,-194.4 117.49,-218.8 222.16,-218.8 222.16,-194.4 117.49,-194.4"/>
<text xml:space="preserve" text-anchor="start" x="122.49" y="-203" font-family="sans-serif" font-size="12.00">→ snapshots      </text>
</g>
<!-- 019b2816&#45;7c3a&#45;7048&#45;8f0f&#45;21c3c6ef817d&#45;&gt;019b281f&#45;bedf&#45;74d3&#45;b933&#45;15d4af5fa061 -->
<g id="019b2827&#45;5513&#45;75af&#45;bab5&#45;b0f0c5cb8a4b" class="edge">
<title>019b2816&#45;7c3a&#45;7048&#45;8f0f&#45;21c3c6ef817d:w&#45;&gt;019b281f&#45;bedf&#45;74d3&#45;b933&#45;15d4af5fa061</title>
<path fill="none" stroke="#666666" d="M228.88,-396.23C183.38,-389.3 155.39,-337.23 140.14,-295.93"/>
<polygon fill="#666666" stroke="#666666" points="228.88,-396.23 238.51,-401.46 234.2,-396.63 238.52,-396.95 238.52,-396.95 238.52,-396.95 234.2,-396.63 239.19,-392.49 228.88,-396.23"/>
</g>
<!-- 019b2829&#45;bef7&#45;7017&#45;83c3&#45;19f7ea771f00 -->
<g id="019b2829&#45;bef7&#45;7017&#45;83c3&#45;19f7ea771f00" class="node">
<title>019b2829&#45;bef7&#45;7017&#45;83c3&#45;19f7ea771f00</title>
<polygon fill="#a6f2f2" stroke="none" points="255.85,-292 255.85,-316.4 458.49,-316.4 458.49,-292 255.85,-292"/>
<polygon fill="none" stroke="black" points="255.85,-292 255.85,-316.4 458.49,-316.4 458.49,-292 255.85,-292"/>
<text xml:space="preserve" text-anchor="start" x="325.84" y="-301.6" font-family="sans-serif" font-weight="bold" font-size="12.00">    users  </text>
<polygon fill="none" stroke="black" points="255.85,-267.6 255.85,-292 368.5,-292 368.5,-267.6 255.85,-267.6"/>
<text xml:space="preserve" text-anchor="start" x="260.85" y="-276.2" font-family="sans-serif" font-size="12.00">created    </text>
<polygon fill="none" stroke="black" points="368.5,-267.6 368.5,-292 458.49,-292 458.49,-267.6 368.5,-267.6"/>
<text xml:space="preserve" text-anchor="start" x="373.5" y="-276.2" font-family="sans-serif" font-size="12.00">timestamp     </text>
<polygon fill="none" stroke="black" points="255.85,-243.2 255.85,-267.6 368.5,-267.6 368.5,-243.2 255.85,-243.2"/>
<text xml:space="preserve" text-anchor="start" x="260.85" y="-251.8" font-family="sans-serif" font-size="12.00">signed_in     </text>
<polygon fill="none" stroke="black" points="368.5,-243.2 368.5,-267.6 458.49,-267.6 458.49,-243.2 368.5,-243.2"/>
<text xml:space="preserve" text-anchor="start" x="373.5" y="-251.8" font-family="sans-serif" font-size="12.00">timestamp     </text>
<polygon fill="none" stroke="black" points="255.85,-218.8 255.85,-243.2 368.5,-243.2 368.5,-218.8 255.85,-218.8"/>
<text xml:space="preserve" text-anchor="start" x="260.85" y="-227.4" font-family="sans-serif" font-size="12.00">username     </text>
<polygon fill="none" stroke="black" points="368.5,-218.8 368.5,-243.2 458.49,-243.2 458.49,-218.8 368.5,-218.8"/>
<text xml:space="preserve" text-anchor="start" x="373.5" y="-227.4" font-family="sans-serif" font-size="12.00">text   </text>
<polygon fill="none" stroke="black" points="255.85,-194.4 255.85,-218.8 368.5,-218.8 368.5,-194.4 255.85,-194.4"/>
<text xml:space="preserve" text-anchor="start" x="260.85" y="-203" font-family="sans-serif" font-size="12.00">display_name      </text>
<polygon fill="none" stroke="black" points="368.5,-194.4 368.5,-218.8 458.49,-218.8 458.49,-194.4 368.5,-194.4"/>
<text xml:space="preserve" text-anchor="start" x="373.5" y="-203" font-family="sans-serif" font-size="12.00">text   </text>
<polygon fill="none" stroke="black" points="255.85,-170 255.85,-194.4 368.5,-194.4 368.5,-170 255.85,-170"/>
<text xml:space="preserve" text-anchor="start" x="260.85" y="-178.6" font-family="sans-serif" font-size="12.00">state_doc_id      </text>
<polygon fill="none" stroke="black" points="368.5,-170 368.5,-194.4 458.49,-194.4 458.49,-170 368.5,-170"/>
<text xml:space="preserve" text-anchor="start" x="373.5" y="-178.6" font-family="sans-serif" font-size="12.00">text   </text>
</g>
<!-- 019b2816&#45;7c3a&#45;7048&#45;8f0f&#45;21c3c6ef817d&#45;&gt;019b2829&#45;bef7&#45;7017&#45;83c3&#45;19f7ea771f00 -->
<g id="019b2829&#45;f6f8&#45;7204&#45;9585&#45;7dd15dc1315e" class="edge">
<title>019b2816&#45;7c3a&#45;7048&#45;8f0f&#45;21c3c6ef817d:w&#45;&gt;019b2829&#45;bef7&#45;7017&#45;83c3&#45;19f7ea771f00</title>
<path fill="none" stroke="#666666" d="M228.84,-371.49C210.07,-366.41 227.54,-344.57 254.99,-320.37"/>
<polygon fill="#666666" stroke="#666666" points="228.91,-371.5 238.37,-377.04 234.21,-372.07 238.52,-372.53 238.52,-372.53 238.52,-372.53 234.21,-372.07 239.33,-368.09 228.91,-371.5"/>
</g>
<!-- 019b282d&#45;ec81&#45;718f&#45;af71&#45;5e3d0f841924 -->
<g id="019b282d&#45;ec81&#45;718f&#45;af71&#45;5e3d0f841924" class="node">
<title>019b282d&#45;ec81&#45;718f&#45;af71&#45;5e3d0f841924</title>
<polygon fill="#a6f2f2" stroke="none" points="27.85,-101.6 27.85,-126 224.49,-126 224.49,-101.6 27.85,-101.6"/>
<polygon fill="none" stroke="black" points="27.85,-101.6 27.85,-126 224.49,-126 224.49,-101.6 27.85,-101.6"/>
<text xml:space="preserve" text-anchor="start" x="74.16" y="-111.2" font-family="sans-serif" font-weight="bold" font-size="12.00">      snapshots   </text>
<polygon fill="none" stroke="black" points="27.85,-77.2 27.85,-101.6 134.5,-101.6 134.5,-77.2 27.85,-77.2"/>
<text xml:space="preserve" text-anchor="start" x="32.85" y="-85.8" font-family="sans-serif" font-size="12.00">content    </text>
<polygon fill="none" stroke="black" points="134.5,-77.2 134.5,-101.6 224.49,-101.6 224.49,-77.2 134.5,-77.2"/>
<text xml:space="preserve" text-anchor="start" x="139.5" y="-85.8" font-family="sans-serif" font-size="12.00">jsonb    </text>
<polygon fill="none" stroke="black" points="27.85,-52.8 27.85,-77.2 134.5,-77.2 134.5,-52.8 27.85,-52.8"/>
<text xml:space="preserve" text-anchor="start" x="32.85" y="-61.4" font-family="sans-serif" font-size="12.00">last_updated      </text>
<polygon fill="none" stroke="black" points="134.5,-52.8 134.5,-77.2 224.49,-77.2 224.49,-52.8 134.5,-52.8"/>
<text xml:space="preserve" text-anchor="start" x="139.5" y="-61.4" font-family="sans-serif" font-size="12.00">timestamp     </text>
<polygon fill="none" stroke="black" points="27.85,-28.4 27.85,-52.8 134.5,-52.8 134.5,-28.4 27.85,-28.4"/>
<text xml:space="preserve" text-anchor="start" x="32.85" y="-37" font-family="sans-serif" font-size="12.00">doc_id    </text>
<polygon fill="none" stroke="black" points="134.5,-28.4 134.5,-52.8 224.49,-52.8 224.49,-28.4 134.5,-28.4"/>
<text xml:space="preserve" text-anchor="start" x="139.5" y="-37" font-family="sans-serif" font-size="12.00">text   </text>
<polygon fill="none" stroke="black" points="27.85,-4 27.85,-28.4 134.5,-28.4 134.5,-4 27.85,-4"/>
<text xml:space="preserve" text-anchor="start" x="32.85" y="-12.6" font-family="sans-serif" font-size="12.00">for_ref    </text>
<polygon fill="none" stroke="black" points="134.5,-4 134.5,-28.4 224.49,-28.4 224.49,-4 134.5,-4"/>
<text xml:space="preserve" text-anchor="start" x="139.5" y="-12.6" font-family="sans-serif" font-size="12.00">→ refs    </text>
</g>
<!-- 019b281f&#45;bedf&#45;74d3&#45;b933&#45;15d4af5fa061&#45;&gt;019b282d&#45;ec81&#45;718f&#45;af71&#45;5e3d0f841924 -->
<g id="019b282e&#45;08f9&#45;755b&#45;b96a&#45;0d159a1d9ed1" class="edge">
<title>019b281f&#45;bedf&#45;74d3&#45;b933&#45;15d4af5fa061:w&#45;&gt;019b282d&#45;ec81&#45;718f&#45;af71&#45;5e3d0f841924</title>
<path fill="none" stroke="#666666" d="M16.95,-205.42C-7.15,-198.57 20.87,-163.14 54.55,-129.72"/>
<polygon fill="#666666" stroke="#666666" points="16.92,-205.41 26.33,-211.03 22.22,-206.03 26.52,-206.52 26.52,-206.52 26.52,-206.52 22.22,-206.03 27.37,-202.09 16.92,-205.41"/>
</g>
<!-- 019b282d&#45;ec81&#45;718f&#45;af71&#45;5e3d0f841924&#45;&gt;019b281f&#45;bedf&#45;74d3&#45;b933&#45;15d4af5fa061 -->
<g id="019b2839&#45;41f4&#45;712c&#45;a78c&#45;0ec6372a503f" class="edge">
<title>019b282d&#45;ec81&#45;718f&#45;af71&#45;5e3d0f841924:w&#45;&gt;019b281f&#45;bedf&#45;74d3&#45;b933&#45;15d4af5fa061</title>
<path fill="none" stroke="#666666" d="M16.49,-17.38C-18.56,-26.47 11.35,-86.39 27.85,-130 36.29,-152.31 51.34,-173.15 67.11,-190.66"/>
<polygon fill="#666666" stroke="#666666" points="16.58,-17.37 27.03,-20.71 21.88,-16.76 26.19,-16.28 26.19,-16.28 26.19,-16.28 21.88,-16.76 26.01,-11.77 16.58,-17.37"/>
</g>
<!-- 019b283f&#45;3445&#45;72bf&#45;8102&#45;98cb3c2617e8 -->
<g id="019b283f&#45;3445&#45;72bf&#45;8102&#45;98cb3c2617e8" class="node">
<title>019b283f&#45;3445&#45;72bf&#45;8102&#45;98cb3c2617e8</title>
<polygon fill="#a6f2f2" stroke="none" points="476.19,-421.4 476.19,-445.8 584.16,-445.8 584.16,-421.4 476.19,-421.4"/>
<polygon fill="none" stroke="black" points="476.19,-421.4 476.19,-445.8 584.16,-445.8 584.16,-421.4 476.19,-421.4"/>
<text xml:space="preserve" text-anchor="start" x="487.51" y="-431" font-family="sans-serif" font-weight="bold" font-size="12.00">     storage   </text>
<polygon fill="none" stroke="black" points="476.19,-397 476.19,-421.4 524.17,-421.4 524.17,-397 476.19,-397"/>
<text xml:space="preserve" text-anchor="start" x="481.19" y="-405.6" font-family="sans-serif" font-size="12.00">key   </text>
<polygon fill="none" stroke="black" points="524.17,-397 524.17,-421.4 584.16,-421.4 584.16,-397 524.17,-397"/>
<text xml:space="preserve" text-anchor="start" x="529.17" y="-405.6" font-family="sans-serif" font-size="12.00">text[]    </text>
<polygon fill="none" stroke="black" points="476.19,-372.6 476.19,-397 524.17,-397 524.17,-372.6 476.19,-372.6"/>
<text xml:space="preserve" text-anchor="start" x="481.19" y="-381.2" font-family="sans-serif" font-size="12.00">data   </text>
<polygon fill="none" stroke="black" points="524.17,-372.6 524.17,-397 584.16,-397 584.16,-372.6 524.17,-372.6"/>
<text xml:space="preserve" text-anchor="start" x="529.17" y="-381.2" font-family="sans-serif" font-size="12.00">bytea    </text>
</g>
</g>
</svg>
